<?xml version="1.0" encoding="UTF-8" standalone="no"?>
<svg id="dashed" width="894" height="892" viewBox="0 0 894 892" fill="none" xmlns="http://www.w3.org/2000/svg">
<path d="M5.66485 44.1967C5.66485 62.6967 -3.33515 277.197 10.1648 279.697C23.6648 282.197 52.1649 301.697 56.6649 295.697C61.1649 289.697 68.1649 255.697 105.665 234.697C143.165 213.697 180.665 217.697 205.165 226.197C229.665 234.697 267.165 263.197 273.665 300.197C280.165 337.197 279.165 427.197 205.165 444.197C131.165 461.197 62.6649 403.697 56.6649 380.697C50.6649 357.697 11.6649 385.197 17.6649 392.197C23.6649 399.197 67.1649 484.197 133.165 485.697C199.165 487.197 249.165 466.197 267.665 449.197C286.165 432.197 300.665 407.697 320.165 410.197C339.665 412.697 363.165 420.697 358.165 449.197C353.165 477.697 345.665 485.697 326.165 485.697C306.665 485.697 281.642 472.197 285.665 449.197C289.687 426.197 301.165 406.197 324.665 410.197C348.165 414.197 365.665 432.697 362.665 449.197C360.974 458.495 352.456 471.286 344 479.697M52.1649 2.69671C42.1649 21.1967 48.1649 179.197 48.1649 187.697C48.1649 196.197 48.3256 218.197 52.1649 226.197C56.0041 234.197 56.6648 224.197 73.6648 205.697C90.6648 187.197 154.665 176.197 165.165 181.697C175.665 187.197 161.165 221.697 171.165 221.697C181.165 221.697 201.665 226.197 234.665 245.697C267.665 265.197 277.665 309.697 277.665 326.697C277.665 343.697 272.285 369.197 261.665 392.197C251.044 415.197 224.165 428.197 215.665 435.697C207.165 443.197 170.665 447.102 166.165 449.197C161.665 451.292 166.665 482.697 164.665 485.697C162.665 488.697 136.665 483.197 100.665 475.197C64.6649 467.197 23.1649 400.572 22.1649 392.197C21.1649 383.822 56.6649 372.197 63.1649 385.697C69.6649 399.197 133.165 449.197 152.665 449.197C172.165 449.197 157.665 486.697 160.665 487.697C163.665 488.697 196.165 483.697 215.665 479.697C235.165 475.697 262.145 453.697 293.665 417.197C325.184 380.697 316.901 333.197 313.665 307.697C310.429 282.197 303.076 261.197 285.665 238.697C268.254 216.197 247.165 202.197 228.665 192.697C210.165 183.197 170.665 176.697 162.165 178.197C153.665 179.697 161.665 214.197 161.165 221.697C160.665 229.197 144.665 220.925 105.665 238.697C66.6649 256.469 64.1649 286.197 56.6649 291.697C49.1649 297.197 21.6648 279.697 10.1648 273.197C-1.33515 266.697 5.66485 17.6967 5.66485 7.69671C5.66485 -2.30329 29.6649 4.19671 48.1649 7.69671C66.6649 11.1967 48.6649 202.197 48.1649 221.697C47.6649 241.197 69.1648 218.197 83.1648 202.197C97.1648 186.197 139.665 180.197 169.665 179.197C199.665 178.197 236.665 194.697 277.665 226.197C318.665 257.697 320.165 339.697 314.665 369.197C309.165 398.697 285.665 430.436 282.665 451.697C279.665 472.958 311.665 485.697 317.165 487.197C322.665 488.697 318.665 436.197 318.165 425.197C317.665 414.197 318.665 405.697 324.665 408.197C330.665 410.697 320.165 482.197 327.665 487.697C330.938 490.097 337.451 486.211 344 479.697M344 479.697C329.888 490.798 300.065 520.8 293.665 552C287.265 583.2 410.694 563.597 439 548.5C553 487.697 785.7 355.354 864.5 475.197C943.3 595.039 829.333 801.333 762.5 889.5" stroke="#010088" stroke-width="4" stroke-linecap="round"/>
<path d="M60.1646 48.6958C56.9979 58.8624 52.5646 79.9957 60.1646 83.1957C69.6646 87.1957 237.165 96.1957 240.165 89.6957C243.165 83.1957 255.165 43.1958 240.165 43.1958C225.165 43.1958 75.1645 32.6958 67.6646 48.6958C60.1646 64.6958 47.1646 92.8681 67.6646 89.6957C88.1646 86.5233 239.665 104.697 244.665 97.1962C249.665 89.6957 264.666 67.6971 253.166 43.1971C243.966 23.5971 113.332 40.0291 105.666 34.6958" stroke="#C11010" stroke-width="4" stroke-linecap="round"/>
</svg>

  <script type="application/ecmascript"><![CDATA[
function startAnimation() {
    var len = document.getElementById('dashed').getTotalLength();
    var animate = document.getElementById('reveal');
    animate.setAttribute('from', '0,' + len);
    animate.setAttribute('to', len + ',0');
    animate.beginElement();
}
  ]]></script>
</defs>
  <use xlink:href="#dashed" stroke-width="4" stroke-dasharray="10" stroke="#E8511B" fill="none" mask="url(#mask)"/>
</svg>