<?xml version="1.0" standalone="no"?>
<!DOCTYPE svg PUBLIC "-//W3C//DTD SVG 20010904//EN"
 "http://www.w3.org/TR/2001/REC-SVG-20010904/DTD/svg10.dtd">
<svg version="1.0" xmlns="http://www.w3.org/2000/svg"
 width="1084.000000pt" height="1084.000000pt" viewBox="0 0 1084.000000 1084.000000"
 preserveAspectRatio="xMidYMid meet">
<metadata>
Created by potrace 1.14, written by Peter Selinger 2001-2017
</metadata>
<g transform="translate(0.000000,1084.000000) scale(0.100000,-0.100000)"
fill="#000000" stroke="none">
<path d="M1667 10593 c-4 -3 -7 -1301 -7 -2883 0 -2290 3 -2880 13 -2887 6 -5
82 -36 167 -67 85 -32 299 -112 474 -177 176 -66 327 -119 335 -119 11 0 39
48 84 143 129 271 267 467 477 677 303 304 643 505 1053 625 152 45 353 82
492 90 61 4 118 12 128 17 16 8 17 38 17 407 0 314 -3 401 -13 409 -22 19
-363 -12 -552 -49 -655 -130 -1237 -439 -1703 -906 -78 -79 -144 -143 -147
-143 -3 0 -6 1095 -7 2433 l-3 2432 -401 3 c-220 1 -403 -1 -407 -5z"/>
<path d="M2735 9767 c-3 -6 -4 -190 -3 -407 l3 -395 1915 0 1915 0 3 385 c1
212 0 395 -3 408 l-5 22 -1911 0 c-1520 0 -1911 -3 -1914 -13z"/>
<path d="M5020 6427 l0 -413 148 -13 c582 -49 1165 -323 1529 -720 218 -238
337 -404 453 -636 125 -247 196 -471 242 -760 30 -187 32 -531 4 -705 -60
-384 -184 -704 -396 -1023 -388 -586 -1010 -974 -1718 -1071 -62 -9 -143 -16
-181 -16 -46 0 -72 -5 -80 -14 -8 -9 -10 -126 -9 -412 l3 -399 115 3 c126 3
354 31 507 63 504 105 976 327 1384 650 132 104 402 374 505 504 363 459 585
959 683 1540 62 366 51 852 -29 1213 -106 479 -293 900 -565 1268 -577 780
-1431 1259 -2395 1344 -63 5 -134 10 -157 10 l-43 0 0 -413z"/>
<path d="M2271 2475 c-195 -72 -360 -136 -367 -141 -11 -7 -3 -34 39 -129 360
-821 1013 -1438 1862 -1760 303 -115 682 -193 965 -198 l125 -2 2 280 c2 154
0 339 -5 410 l-7 130 -110 7 c-397 23 -842 174 -1179 400 -393 263 -705 630
-886 1041 -35 80 -47 97 -64 96 -12 -1 -180 -61 -375 -134z"/>
<path d="M8205 1844 c-248 -54 -464 -225 -565 -448 -53 -117 -73 -209 -74
-336 -1 -144 18 -227 86 -369 44 -93 61 -115 142 -196 55 -56 119 -108 162
-133 85 -49 229 -99 299 -104 l50 -3 0 800 c0 703 -2 800 -15 802 -8 1 -46 -5
-85 -13z"/>
<path d="M8437 1854 c-4 -4 -7 -364 -7 -801 0 -714 2 -794 16 -800 21 -8 180
32 250 63 166 73 315 216 398 381 14 28 37 91 52 140 22 75 25 108 26 218 0
111 -4 143 -26 218 -31 104 -62 170 -121 252 -96 135 -241 243 -398 295 -88
30 -178 46 -190 34z"/>
</g>
</svg>
