<svg width="1701" height="555" viewBox="0 0 1701 555" fill="none" xmlns="http://www.w3.org/2000/svg">
<path d="M244 0.5C238.833 24.5 186.1 39 174.5 43C160 48 71.9999 46.5 46.596 150C25.307 236.735 60.596 306.5 84.596 314.5C108.596 322.5 298.096 329.5 302.096 322C306.096 314.5 298.096 256.5 302.096 256C306.096 255.5 369.596 254 369.596 256C369.596 258 372.096 431 370.596 432.5C369.096 434 305.596 434.5 303.596 432.5C301.596 430.5 307.096 322.5 304.596 321C302.096 319.5 100.096 315.5 100.596 318.5C101.096 321.5 100.596 322 101.596 322C102.596 322 302.596 326.5 303.096 325.5C303.596 324.5 301.596 310 303.596 309C305.596 308 369.596 307 369.596 309C369.596 311 368.096 320 369.596 320.5C371.096 321 703.096 315.5 703.596 317C704.096 318.5 703.096 322.5 700.596 322.5C698.096 322.5 370.596 324.5 369.596 325.5C368.596 326.5 367.096 342 371.596 342C376.096 342 702.596 339.5 705.096 338.5C707.596 337.5 716.096 323 713.596 322.5C711.096 322 369.096 326 369.096 325C369.096 324 371.096 308 369.596 307.5C368.096 307 314.596 310 314.596 307.5C314.596 305 313.596 302.5 315.596 302.5C317.596 302.5 359.096 302 359.096 303C359.096 304 361.096 309 359.096 309C357.096 309 314.596 310.698 314.596 309.5C314.596 308.302 312.596 301.5 314.596 301.5C316.596 301.5 316.596 302.5 317.096 301C317.596 299.5 315.596 267 318.096 265.5C320.596 264 354.596 263.5 355.096 264.5C355.596 265.5 358.096 303.5 356.596 303.5C355.096 303.5 339.596 304 337.596 303.5C335.596 303 320.096 296.5 321.096 287C322.096 277.5 324.096 272 335.096 271.5C346.096 271 352.096 277.5 351.596 282C351.096 286.5 348.096 297 342.096 298C336.096 299 330.096 299 326.096 296C322.096 293 320.596 289 321.596 285.5C322.596 282 320.096 273 334.096 272.5C348.096 272 352.096 280 352.096 282C352.096 284 349.596 293 344.596 296C339.596 299 333.096 303.5 330.596 303.5C328.096 303.5 317.596 305 317.096 302C316.596 299 315.596 266 317.596 265C319.596 264 352.596 263.5 354.596 265C356.596 266.5 355.596 303.5 357.096 303.5C358.596 303.5 359.096 303 359.096 304.5C359.096 306 358.596 308.5 360.096 308.5C361.596 308.5 370.096 309.5 370.096 307C370.096 304.5 369.596 258 370.596 255C371.596 252 382.096 236 378.096 235C374.096 234 297.596 232.5 296.596 235C295.596 237.5 300.596 256.5 303.596 256.5C306.596 256.5 366.761 257 368.596 256.5C370.431 256 380.096 238 378.096 236.5C376.096 235 371.178 236.63 369.596 235.5C368.014 234.37 372.096 230 368.596 229.5C365.096 229 304.096 228 303.596 230C303.096 232 302.596 236 306.596 235.5C310.596 235 368.596 236 368.596 235C368.596 234 370.596 231.5 368.596 230.5C366.596 229.5 340.596 230.5 339.096 229.5C337.596 228.5 339.096 226.5 338.096 225.5C337.096 224.5 336.596 224 336.596 223C336.596 222 337.096 219 336.096 219.5C335.096 220 336.096 222.5 335.596 223C335.096 223.5 334.596 225 334.096 225.5C333.596 226 334.096 229.5 332.596 229.5C331.096 229.5 303.596 229 303.096 230C302.596 231 304.096 234 303.096 234.5C302.096 235 297.596 234 297.096 235.5C296.596 237 303.096 254.5 302.596 255.5C302.096 256.5 300.596 257 300.596 262.5C300.596 268 301.596 362 303.596 363C305.596 364 323.596 358.5 324.096 363C324.596 367.5 323.096 396 325.096 396.5C327.096 397 349.096 398 349.096 396.5C349.096 395 351.596 360 349.096 359.5C346.596 359 327.096 356 325.096 359.5C323.096 363 321.096 396.5 323.096 396.5C325.096 396.5 348.096 399 349.596 397C351.096 395 352.096 360 350.596 359.5C349.096 359 324.596 355.5 323.596 359C322.596 362.5 324.096 394.5 325.596 395.5C327.096 396.5 334.596 397.5 336.096 396C337.596 394.5 338.096 360 337.096 359.5C336.096 359 338.096 380.5 336.596 381.5C335.096 382.5 325.096 380.5 325.096 381C325.096 381.5 350.596 380.5 348.596 381C346.596 381.5 338.84 380.5 338.096 382C337.352 383.5 335.096 395.5 337.596 396C340.096 396.5 350.096 399 350.596 397C351.096 395 348.096 364.5 351.596 363.5C355.096 362.5 370.096 366.5 370.096 363C370.096 359.5 370.596 311 368.596 310C366.596 309 336.596 308 335.596 310.5C334.596 313 334.096 315.5 338.096 315C342.096 314.5 352.596 312 353.096 315C353.596 318 353.596 323.5 353.096 322C352.596 320.5 353.096 316.5 352.096 315.5C351.096 314.5 321.596 312.5 321.096 315C320.596 317.5 320.596 323 321.096 322C321.596 321 319.596 316 322.096 315.5C324.596 315 335.596 314 335.596 315.5C335.596 317 339.596 325.5 336.096 326C332.596 326.5 318.596 327 317.096 326C315.596 325 313.096 312.5 316.096 312C319.096 311.5 357.096 310.5 357.096 312C357.096 313.5 358.596 326 356.596 326C354.596 326 338.596 325 337.596 326.5C336.596 328 340.596 432.182 336.596 433C332.596 433.818 320.596 431 319.596 435C318.596 439 323.596 479.5 318.096 479.5C312.596 479.5 301.096 483 299.096 479.5C297.096 476 299.096 436.773 303.596 435C308.096 433.226 371.096 432.5 371.596 435C372.096 437.5 377.596 477.5 375.596 478.5C373.596 479.5 359.096 481.5 356.596 478.5C354.096 475.5 353.596 435.5 355.096 435C356.596 434.5 705.096 434 706.596 437C708.096 440 716.096 482.5 713.596 483.5C711.096 484.5 379.596 482 377.596 481C375.596 480 369.596 437 370.596 436C371.596 435 704.596 436.5 705.596 435C706.596 433.5 703.596 342.5 705.096 340.5C706.596 338.5 716.596 322 714.596 322C712.596 322 703.596 323 703.596 322C703.596 321 705.096 317 704.096 316.5C703.096 316 372.398 319 371.096 320C369.794 321 377.096 479 375.596 479.5C374.096 480 98.596 487 97.596 485.5C96.596 484 97.596 437 100.096 436.5C102.596 436 303.096 434 303.096 436.5C303.096 439 300.596 480.5 297.596 480.5C294.596 480.5 98.596 486.5 98.096 484.5C97.596 482.5 100.596 439 100.096 435.5C99.596 432 95.096 341.5 100.596 340C106.096 338.5 301.982 343 303.596 341C305.21 339 305.096 327 303.596 326.5C302.096 326 93.096 320 93.096 322C93.096 324 98.596 340 99.596 340C100.596 340 302.096 339.5 302.596 342C303.096 344.5 302.096 429.549 304.596 432C307.096 434.451 370.596 432.192 371.596 433.5C372.596 434.808 373.096 435.5 375.096 435.5C377.096 435.5 701.187 432 705.096 439.5C709.005 447 711.596 464 717.596 464C723.596 464 1160.1 468.5 1164.1 464C1168.1 459.5 1169.6 436 1164.1 433C1158.6 430 717.596 430.5 717.596 428.5C717.596 426.5 714.596 420.5 720.096 419.5C725.596 418.5 1164.1 429 1164.1 425C1164.1 421 1168.1 370.5 1164.1 370.5C1160.1 370.5 718.596 372 717.596 368.5C716.596 365 714.596 359 717.096 358.5C719.596 358 1162.1 363.5 1164.1 360.5C1166.1 357.5 1170.6 288.5 1165.6 287C1160.6 285.5 718.096 287.5 717.596 284.5C717.096 281.5 714.096 277 722.096 277C730.096 277 1164.6 281.5 1165.6 280C1166.6 278.5 1168.1 274 1163.1 273.5C1158.1 273 719.096 275 717.596 273.5C716.096 272 713.096 267 717.596 267C722.096 267 1165.6 269 1165.6 267.5C1165.6 266 1019.1 268 1017.1 267C1015.1 266 944.596 229 940.596 230.5C936.596 232 860.596 264 861.096 265.5C861.596 267 873.596 268.5 879.096 266.5C884.596 264.5 940.096 238.5 941.596 238.5C943.096 238.5 1001.1 267 1003.1 267C1005.1 267 1019.6 269 1017.6 266.5C1015.6 264 972.596 245 972.096 243C971.596 241 976.596 222.5 972.096 221C967.596 219.5 909.596 219.5 908.596 221.5C907.596 223.5 910.096 241.407 908.596 243C907.096 244.592 889.596 252.5 885.596 252.5C881.596 252.5 719.096 252 717.596 254.5C716.096 257 715.096 461 717.596 461.5C720.096 462 1157.1 464.5 1160.6 461.5C1164.1 458.5 1170.1 257.5 1165.6 254C1161.1 250.5 993.596 248.287 994.096 251.5C994.596 254.712 1001.1 257.5 1005.1 257.5C1009.1 257.5 1160.6 254 1163.1 257.5C1165.6 261 1167.1 275.5 1165.1 275.5C1163.1 275.5 718.096 272.5 717.096 274C716.096 275.5 716.096 277.5 717.096 277.5C718.096 277.5 1161.6 278.5 1164.1 281.5C1166.6 284.5 1168.1 288.5 1165.6 288.5C1163.1 288.5 923.596 285 922.596 287C921.596 289 924.096 358 922.596 358.5C921.096 359 902.096 360.5 902.096 358.5C902.096 356.5 905.096 287 903.596 287C902.096 287 881.596 285 881.096 289C880.596 293 882.596 358 880.596 358.5C878.596 359 869.096 360 868.096 358.5C867.096 357 868.596 288.769 867.596 287.5C866.596 286.231 802.096 284 799.596 287.5C797.096 291 802.096 357.5 800.596 358C799.096 358.5 785.596 361 784.096 358C782.596 355 784.596 289.5 783.096 287.5C781.596 285.5 757.596 281 756.096 286.5C754.596 292 758.596 358 756.096 358C753.596 358 744.596 360 744.096 358C743.596 356 746.096 289.515 743.596 287.5C741.096 285.484 719.596 285.5 717.596 287.5C715.596 289.5 715.096 369.17 717.096 369C719.096 368.83 744.096 367 744.096 369C744.096 371 741.096 420.5 743.096 420.5C745.096 420.5 757.096 422 758.096 420.5C759.096 419 758.096 370.5 759.596 369C761.096 367.5 783.096 367.5 784.096 369.5C785.096 371.5 782.596 419 784.096 419C785.596 419 801.096 421 801.596 419C802.096 417 799.596 373.5 800.596 372.5C801.596 371.5 816.596 369.5 817.596 371C818.596 372.5 817.596 419.5 818.596 419.5C819.596 419.5 838.096 424.5 838.596 419.5C839.096 414.5 837.596 373 840.096 371.5C842.596 370 865.096 366 867.596 371.5C870.096 377 864.096 419 867.596 419C871.096 419 875.596 422 878.096 419C880.596 416 874.596 371 878.096 369.5C881.596 368 912.596 367.5 913.096 371.5C913.596 375.5 910.596 421 913.096 421C915.596 421 921.096 423 922.096 421C923.096 419 920.596 374 922.596 372C924.596 370 958.096 366.5 960.096 372C962.096 377.5 957.596 421 960.096 421C962.596 421 967.596 423 968.096 421C968.596 419 967.596 374 969.596 372C971.596 370 1001.1 367.5 1002.6 372C1004.1 376.5 1001.6 422 1004.1 422C1006.6 422 1016.1 424.5 1017.6 421C1019.1 417.5 1015.1 373.209 1017.6 372C1020.1 370.791 1046.1 368 1047.1 372C1048.1 376 1044.1 422 1047.1 422C1050.1 422 1063.1 427.5 1064.1 422C1065.1 416.5 1061.6 375.5 1064.1 372.5C1066.6 369.5 1089.6 368.5 1090.1 372C1090.6 375.5 1087.1 423.357 1089.1 424.5C1091.1 425.643 1101.6 426.5 1101.6 424.5C1101.6 422.5 1099.1 373.351 1103.1 372C1107.1 370.649 1127.1 368 1129.1 372.5C1131.1 377 1126.6 424.5 1129.1 424.5C1131.6 424.5 1142.6 427 1143.6 424.5C1144.6 422 1139.1 373.46 1144.6 372C1150.1 370.54 1165.1 373 1166.1 370.5C1167.1 368 1168.1 363.088 1164.1 362C1160.1 360.912 1147.1 362.5 1147.1 360.5C1147.1 358.5 1149.1 288.5 1144.6 288.5C1140.1 288.5 1126.6 287 1127.6 290C1128.6 293 1132.1 356.5 1129.1 358.5C1126.1 360.5 1104.6 362.5 1102.1 360.5C1099.6 358.5 1101.1 290.595 1099.1 288.5C1097.1 286.404 1090.1 284 1089.1 288.5C1088.1 293 1091.6 360.5 1089.1 360.5C1086.6 360.5 1065.1 360.5 1064.6 359C1064.1 357.5 1067.1 292.325 1064.6 289.343C1062.1 286.362 1045.6 287 1045.6 288.5C1045.6 290 1049.1 360.5 1047.1 360.5C1045.1 360.5 1020.6 362 1019.1 360C1017.6 358 1021.1 289.5 1019.1 288.5C1017.1 287.5 1004.1 286 1003.1 288.5C1002.1 291 1004.6 358 1002.6 359C1000.6 360 971.596 361 970.596 359C969.596 357 973.096 290.588 970.596 288.5C968.096 286.412 961.096 285 960.096 288.5C959.096 292 962.096 358 960.096 359C958.096 360 719.106 356.5 717.596 360C716.086 363.5 715.096 370.5 717.596 370.5C720.096 370.5 1164.1 372.5 1164.6 369.5C1165.1 366.5 1167.1 365.305 1164.6 363.5C1162.1 361.695 720.268 356.5 718.096 359C715.924 361.5 715.096 462 718.096 462.5C721.096 463 1163.6 470.5 1164.1 459.5C1164.6 448.5 1169.6 255 1165.6 253C1161.6 251 996.096 253.5 991.596 251.5C987.096 249.5 945.596 228.5 941.596 229.5C937.596 230.5 863.096 264.259 863.596 265.5C864.096 266.741 881.596 268.5 883.596 266.5C885.596 264.5 934.596 240.36 940.596 240.5C946.596 240.64 1003.6 264.5 1000.1 267C996.596 269.5 719.155 268 718.096 266.5C717.038 265 716.096 254.5 717.096 254C718.096 253.5 883.096 254.955 885.596 253.5C888.096 252.045 906.104 246.5 907.596 243C909.089 239.5 906.096 223.5 910.096 222.5C914.096 221.5 970.251 220 972.096 222.5C973.941 225 971.096 239.486 973.096 241.5C975.096 243.513 990.43 253 992.596 253C994.762 253 1164.18 253 1165.1 254C1166.01 255 1167.1 256 1165.6 257C1164.1 258 1003.6 257.5 1004.6 258.5C1005.6 259.5 1014.6 266.5 1019.1 266.5C1023.6 266.5 1165.6 266.5 1166.1 268C1166.6 269.5 1152.1 468 1166.1 467.5C1180.1 467 1361.1 478 1364.6 476C1368.1 474 1360.1 466.5 1364.6 465C1369.1 463.5 1390.1 461.5 1390.6 465C1391.1 468.5 1393.1 476 1389.6 476C1386.1 476 1364.1 477 1363.6 475C1363.1 473 1361.6 461.5 1363.6 462C1365.6 462.5 1363.6 315 1366.1 313.5C1368.6 312 1381.1 311.5 1381.1 313.5C1381.1 315.5 1387.1 462 1384.6 462C1382.1 462 1363.6 463.5 1363.1 460.5C1362.6 457.5 1365.1 314.5 1364.6 313C1364.1 311.5 1359.1 301.5 1363.1 300C1367.1 298.5 1383.6 297 1383.1 300C1382.6 303 1383.6 311.736 1380.6 312C1377.6 312.264 1364.6 314 1363.6 312.5C1362.6 311 1361.6 301 1361.6 300C1361.6 299 1357.1 289.5 1361.6 289.5C1366.1 289.5 1587.1 287 1587.1 289.5C1587.1 292 1590.6 299 1586.1 300C1581.6 301 1362.54 299 1361.6 298C1360.65 297 1359.6 290 1359.6 288.5C1359.6 287 1353.1 253 1363.6 253.5C1374.1 254 1591.6 253.5 1591.6 258C1591.6 262.5 1594.6 283.979 1589.1 286.5C1583.6 289.021 1363.6 293 1361.6 288.5C1359.6 284 1355.6 271 1359.6 269.5C1363.6 268 1589.6 267 1590.6 270.5C1591.6 274 1595.1 276.5 1590.6 276.5C1586.1 276.5 1360.51 273.5 1359.6 276.5C1358.69 279.5 1358.1 287.5 1362.6 287.5C1367.1 287.5 1368.1 288.5 1368.1 286.5C1368.1 284.5 1366.1 278.5 1369.6 278C1373.1 277.5 1372.1 287.5 1374.1 287.5C1376.1 287.5 1376.1 288 1376.6 283C1377.1 278 1377.1 277.5 1379.1 277.5C1381.1 277.5 1379.6 288.5 1383.1 287.5C1386.6 286.5 1384.6 278 1387.6 278C1390.6 278 1390.1 287.5 1393.1 287.5C1396.1 287.5 1392.1 278 1396.1 278C1400.1 278 1399.1 287 1402.6 286.5C1406.1 286 1403.1 278 1406.6 278C1410.1 278 1408.1 288.5 1411.1 287.5C1414.1 286.5 1411.6 278.5 1415.1 278.5C1418.6 278.5 1417.1 287 1421.1 286.5C1425.1 286 1421.6 278.5 1425.1 278.5C1428.6 278.5 1426.6 286.5 1430.6 286.5C1434.6 286.5 1432.1 278.5 1435.6 278.5C1439.1 278.5 1436.6 286.5 1439.6 286.5C1442.6 286.5 1442.1 278.5 1444.6 278.5C1447.1 278.5 1446.1 286.5 1449.1 286.5C1452.1 286.5 1449.1 278.5 1453.1 278.5C1457.1 278.5 1452.6 286.5 1456.6 286.5C1460.6 286.5 1458.1 279 1461.6 279C1465.1 279 1461.6 286.5 1465.6 286.5C1469.6 286.5 1466.6 279 1470.6 279C1474.6 279 1472.6 286.5 1476.1 286.5C1479.6 286.5 1478.1 279 1481.6 279C1485.1 279 1482.6 287.5 1486.6 287C1490.6 286.5 1487.1 279 1491.6 279C1496.1 279 1492.6 287.5 1497.1 287C1501.6 286.5 1499.1 278.5 1503.1 279C1507.1 279.5 1502.6 286.5 1507.1 286.5C1511.6 286.5 1508.1 279 1511.6 279C1515.1 279 1512.1 286.5 1517.1 286C1522.1 285.5 1516.6 279 1521.6 279C1526.6 279 1522.69 287 1525.4 286.5C1528.1 286 1527.6 279.5 1531.1 279.5C1534.6 279.5 1531.1 287 1534.6 286.5C1538.1 286 1535.6 280 1539.1 280C1542.6 280 1539.1 286 1543.1 286C1547.1 286 1544.1 279.5 1546.6 279.5C1549.1 279.5 1548.1 286 1550.6 286C1553.1 286 1552.6 279.5 1555.6 279.5C1558.6 279.5 1555.6 285.5 1559.1 285.5C1562.6 285.5 1561.1 279.5 1564.1 279.5C1567.1 279.5 1565.6 286 1568.6 286C1571.6 286 1569.6 279.5 1573.1 279.5C1576.6 279.5 1574.1 286.5 1577.1 286C1580.1 285.5 1577.1 280 1581.6 280C1586.1 280 1582.6 286.363 1585.6 286.5C1588.6 286.637 1589.6 299 1588.6 299.5C1587.6 300 1585.6 297.5 1584.6 300.5C1583.6 303.5 1583.1 317.5 1580.1 317.5C1577.1 317.5 1564.6 320.5 1563.1 317.5C1561.6 314.5 1558.1 302.728 1559.6 301.5C1561.1 300.272 1583.6 299 1583.1 301.5C1582.6 304 1580.1 316.5 1580.1 318.5C1580.1 320.5 1584.1 456 1575.1 457C1566.1 458 1558.6 457 1558.1 453.5C1557.6 450 1560.6 320.277 1563.1 319.5C1565.6 318.723 1578.6 316.5 1579.1 319.5C1579.6 322.5 1576.1 457.5 1578.1 457.5C1580.1 457.5 1583.6 456.5 1583.6 458.5C1583.6 460.5 1587.6 475.5 1582.1 474.5C1576.6 473.5 1555.6 476.5 1555.1 474.5C1554.6 472.5 1552.1 459.5 1554.6 458.5C1557.1 457.5 1559.1 459 1558.6 457.5C1558.1 456 1563.6 320.5 1562.6 318.5C1561.6 316.5 1561.6 302.735 1558.6 301.5C1555.6 300.265 1543.6 300.5 1542.6 301.5C1541.6 302.5 1541.1 316 1538.6 316.5C1536.1 317 1523.1 317.5 1521.6 316.5C1520.1 315.5 1518.1 302 1519.1 301.5C1520.1 301 1541.1 300.5 1541.1 301.5C1541.1 302.5 1539.1 316 1539.1 317.5C1539.1 319 1541.1 456.5 1539.6 457C1538.1 457.5 1519.1 461 1519.1 457C1519.1 453 1522.1 318.231 1521.6 317C1521.1 315.769 1519.1 301.912 1517.6 301C1516.1 300.088 1504.1 300 1502.6 301C1501.1 302 1499.1 312.5 1499.1 314C1499.1 315.5 1502.6 456 1500.6 457C1498.6 458 1483.1 459.5 1481.6 456.5C1480.1 453.5 1481.6 314 1483.1 313C1484.6 312 1500.1 311.5 1500.6 312.5C1501.1 313.5 1499.6 457.526 1500.6 457.763C1501.6 458 1503.6 457.5 1503.6 459C1503.6 460.5 1506.1 475.5 1502.1 475.5C1498.1 475.5 1479.1 476 1479.1 474.5C1479.1 473 1476.6 460.237 1479.1 459C1481.6 457.763 1482.1 458 1482.6 456.5C1483.1 455 1485.1 317 1484.1 314C1483.1 311 1477.6 303.162 1480.1 301.5C1482.6 299.838 1504.1 299 1503.1 301.5C1502.1 304 1502.6 311.044 1498.6 311.5C1494.6 311.956 1483.1 314 1481.6 312.5C1480.1 311 1481.1 301.5 1478.6 301C1476.1 300.5 1464.6 299.5 1462.6 301.5C1460.6 303.5 1459.1 311 1459.1 313.5C1459.1 316 1459.1 458 1461.6 458.5C1464.1 459 1467.1 457.5 1467.6 459.5C1468.1 461.5 1470.1 470.5 1468.1 472.5C1466.1 474.5 1442.6 476.5 1441.6 475C1440.6 473.5 1438.1 459.5 1440.6 459.5C1443.1 459.5 1443.6 459.026 1443.6 457.763C1443.6 456.5 1442.6 313.5 1444.6 312.5C1446.6 311.5 1460.1 314 1460.6 313C1461.1 312 1462.6 302.361 1461.6 301C1460.6 299.638 1445.6 299.5 1443.6 300.5C1441.6 301.5 1443.1 310.5 1444.1 311C1445.1 311.5 1458.6 313.5 1459.6 312.5C1460.6 311.5 1463.1 302 1461.6 300.5C1460.1 299 1425.1 298.5 1423.6 301C1422.1 303.5 1423.1 310 1421.1 310.5C1419.1 311 1404.2 312 1403.4 310.5C1402.6 309 1400.6 300.5 1401.6 300C1402.6 299.5 1422.6 299 1423.1 300C1423.6 301 1421.1 310.5 1421.1 311.5C1421.1 312.5 1419.1 458.5 1421.1 458.5C1423.1 458.5 1425.1 458.5 1425.1 461C1425.1 463.5 1426.6 475 1423.1 475C1419.6 475 1400.6 476.5 1400.6 474.5C1400.6 472.5 1398.1 461 1400.6 461C1403.1 461 1404.1 460.5 1404.1 459.5C1404.1 458.5 1404.1 313.104 1404.1 312C1404.1 310.896 1402.6 301.108 1400.1 300C1397.6 298.892 1362.6 299.884 1362.6 299C1362.6 298.116 1583.6 299.5 1584.1 301C1584.6 302.5 1579.6 316.5 1579.6 318C1579.6 319.5 1578.6 458 1577.1 458C1575.6 458 1555.63 457 1554.6 459C1553.56 461 1554.1 473 1555.6 474C1557.1 475 1584.1 476 1584.6 474.5C1585.1 473 1585.1 459 1583.1 458.5C1581.1 458 1556.63 457 1555.1 459C1553.56 461 1553.6 473 1556.1 473.5C1558.6 474 1596.6 471 1598.6 475.5C1600.6 480 1606.1 506.5 1598.6 507C1591.1 507.5 1309.1 516 1309.1 509.5C1309.1 503 1304.6 477.336 1310.6 476C1316.6 474.664 1349.6 477.5 1349.6 473C1349.6 468.5 1352.6 461.5 1347.6 460.5C1342.6 459.5 1324.6 459 1322.6 462C1320.6 465 1318.99 473.031 1321.1 474C1323.21 474.969 1349.6 476 1349.6 475C1349.6 474 1351.6 463.669 1349.1 462C1346.6 460.331 1323.1 459 1321.1 462C1319.1 465 1320.1 476 1321.1 476C1322.1 476 1349.6 477 1350.1 475.5C1350.6 474 1351.1 461 1349.6 460.5C1348.1 460 1345.6 460.5 1345.1 459.5C1344.6 458.5 1346.1 447 1341.6 446.5C1337.1 446 1324.6 443.5 1324.1 446.5C1323.6 449.5 1321.1 462 1324.6 461.5C1328.1 461 1349.1 460.5 1349.6 461C1350.1 461.5 1349.1 475 1349.6 475.5C1350.1 476 1542.1 477.5 1543.1 475.5C1544.1 473.5 1546.1 459.5 1543.1 458.5C1540.1 457.5 1515.1 456.5 1515.1 458.5C1515.1 460.5 1513.6 475.5 1515.1 475.5C1516.6 475.5 1543.6 477 1544.6 475.5C1545.6 474 1546.6 460.628 1544.6 459.5C1542.6 458.372 1516.17 457 1515.6 458.5C1515.02 460 1513.6 475 1514.1 475.5C1514.6 476 1595.75 474 1597.6 476C1599.44 478 1602.1 504.891 1599.1 506C1596.1 507.109 1312.22 511 1310.6 509C1308.97 507 1306.1 479.363 1310.6 477.5C1315.1 475.637 1400.1 476.5 1400.6 475.5C1401.1 474.5 1398.67 463.5 1401.1 462C1403.52 460.5 1421.6 459 1423.6 460.5C1425.6 462 1424.1 473 1425.6 474.5C1427.1 476 1467.6 476.5 1468.6 475C1469.6 473.5 1469.6 459 1467.6 458.5C1465.6 458 1440.1 457.5 1439.6 459C1439.1 460.5 1439.6 474.231 1440.6 475C1441.6 475.769 1477.6 477 1478.1 475.5C1478.6 474 1477.1 460.5 1479.1 459.5C1481.1 458.5 1501.1 457.5 1502.6 458.5C1504.1 459.5 1502.1 475.5 1504.1 475.5C1506.1 475.5 1545.1 477 1546.1 474.5C1547.1 472 1546.6 458.5 1544.1 458C1541.6 457.5 1541.36 458.5 1540.6 457C1539.83 455.5 1540.6 318.182 1538.1 317.5C1535.6 316.818 1523.6 315.5 1522.1 317.5C1520.6 319.5 1517.6 457 1520.1 457C1522.6 457 1545.1 456.5 1546.1 459C1547.1 461.5 1548.6 475 1546.6 478.5C1544.6 482 1524.5 521 1543.1 531C1552.35 535.979 1601.6 511.5 1597.6 531C1593.6 550.5 1647.5 500 1674.5 497C1701.5 494 1716.15 452.772 1657.5 419C1555.9 360.5 140.096 348.5 138.596 243C137.096 137.5 547.096 99.5 868.096 110C1189.1 120.5 1426.69 -34.6344 1611.1 114.5C1723 205 1647 447.268 1556 553" stroke="#010088" stroke-width="4"/>
<path d="M818.5 358.5C817.167 336.5 815.6 292 820 290C825.5 287.5 851.5 286 851 289C850.5 292 857 356.5 853 358.5C849 360.5 825 361 822.5 358.5C820 356 814 292 817 289C820 286 851 285 851 286C851 287 857 359.5 855 360C853.4 360.4 831 360.167 820 360" stroke="#010088" stroke-width="4"/>
<path d="M882.5 419.5C882.333 404.167 884.6 373.8 895 375C905.4 376.2 908 406.5 908 421.5M927.5 419.5C926.333 404.667 926.8 375 938 375C949.2 375 952.333 407 952.5 423M972.5 423C971 407 970.7 375 981.5 375C992.3 375 997 407 998 423M939.5 248.5C937 248.167 931.9 248.9 931.5 254.5C931 261.5 937 263 939.5 263C942 263 946 260.5 945 254.5C944.2 249.7 941 248.5 939.5 248.5Z" stroke="#010088" stroke-width="4"/>
<path d="M805 398C807.5 397.5 812.5 397.2 812.5 400C812.5 403.5 812.5 415 810 415C807.5 415 804 415.5 804 411.5C804 407.5 803.5 399.228 805 398.5M887 292.5C887 292.704 887 292.906 887 293.105M887 293.105C886.988 309 886.525 309 888.5 309C890.5 309 899 310 898.5 309C898 308 899.5 294.5 897.5 294C895.5 293.5 887.5 292.21 887 293.105ZM935 292.5C934.333 297.333 933.2 307.2 934 308C935 309 942 309.5 943 308C944 306.5 945.5 292.5 943 292.5C940.5 292.5 934 292.5 934 293M979 340C978.333 343 977.4 349.2 979 350C981 351 989 353 989 350C989 347 992 337.5 989 337.5C986 337.5 979 335 979 337.5C979 339.5 979 344 979 346M1108.5 294C1107.83 299.667 1106.9 311 1108.5 311C1110.5 311 1116.5 314 1117.5 311C1118.5 308 1121 294 1118.5 294C1116.5 294 1110 294 1107 294M933.5 459.5C932.667 451.167 932.9 434.6 940.5 435C948.1 435.4 949.333 451.5 949 459.5M939.5 217C938.5 211.167 936.9 199.5 938.5 199.5C940.1 199.5 940.833 211.167 941 217" stroke="#010088" stroke-width="4"/>
<path d="M124.5 472.5C129.667 473.167 140 474.1 140 472.5C140 470.5 140.5 444.5 131.5 445C124.3 445.4 122.5 463.5 122.5 472.5M163.5 472.5C168 473.334 177.2 474.5 178 472.5C179 470 179.5 445 171.5 445C165.1 445 163.5 461.667 163.5 470M202.5 472.5C207.333 473.834 217.1 475.7 217.5 472.5C218 468.5 218 445 211 445C205.4 445 203 461.667 202.5 470M242.5 470C246.5 471 254.6 472.4 255 470C255.5 467 255.5 445 250.5 445C246.5 445 242.5 460.333 241 468M279.5 470C283.667 471.333 292.2 473.2 293 470C294 466 294 445 288 445C283.2 445 280.333 460.333 279.5 468M328.5 477.5C326.167 466 323.8 442.8 333 442C342.2 441.2 346.167 465.333 347 477.5M387 469C392 470.667 402 473 402 469C402 464 401 442.5 393 443.5C386.6 444.3 385.333 460.833 385.5 469M430.5 469C435.333 469.667 445.1 470.6 445.5 469C446 467 448 444.5 438.5 445C430.9 445.4 429 460.167 429 467.5M474.5 469C478.5 470 486.7 471.4 487.5 469C488.5 466 488.5 445 481.5 445C475.9 445 474.5 460 474.5 467.5M518.5 469C523 470.167 532.2 471.8 533 469C534 465.5 533.5 445 526 445C520 445 516.833 460 516 467.5M564.5 469C568.667 469.5 577.2 470.2 578 469C579 467.5 579.5 445 572 445C566 445 563.5 460 563 467.5M609.5 469C613.5 469.5 621.6 470.2 622 469C622.5 467.5 623.5 445 616.5 445C610.9 445 608.5 460 608 467.5M654 469C658.667 470 668.2 471.4 669 469C670 466 669 445 661.5 445C655.5 445 652.667 461 652 469M650 373C648.667 383.667 646.8 405 650 405C654 405 670.5 408.5 672 403.5C673.5 398.5 674 373 669 373C665 373 654 372.667 649 372.5M427.5 406.5C434.167 408 447.5 410.1 447.5 406.5C447.5 402 450.5 374.5 445.5 375C440.5 375.5 426 367 426 375C426 381.4 426 397.667 426 405M430.5 369C434.333 369.167 442.1 369.1 442.5 367.5C443 365.5 443.5 355 438.5 355C434.5 355 431.5 362.333 430.5 366" stroke="#010088" stroke-width="4"/>
<path d="M562 366C566.333 366.5 575 367.2 575 366C575 364.5 577 353.5 569.5 352.5C563.5 351.7 562 359.5 562 363.5M125.5 367.5C129.167 368.333 136.5 369.5 136.5 367.5C136.5 365 138.5 351.5 132 351.5C126.8 351.5 125.5 360.833 125.5 365.5M236.5 407.5C243 408 256.1 408.7 256.5 407.5C257 406 260 377.5 254.5 376.5C249 375.5 236.5 374.5 236.5 376.5C236.5 378.5 237 405.321 238 406.5" stroke="#010088" stroke-width="4"/>
<path d="M1177 164.679C1173.5 264.846 1168 465.579 1174 467.179C1181.5 469.179 1310.5 476.179 1311.5 467.179C1312.5 458.179 1320.5 163.179 1303 162.179C1285.5 161.179 1177 159.679 1177 162.179C1177 164.679 1168.5 459.679 1175 464.679C1181.5 469.679 1312 473.679 1313.5 469.179C1315 464.679 1313.5 170.179 1303 168.679C1292.5 167.179 1180.5 162.179 1180 167.179C1179.5 172.179 1174 203.179 1177 202.679C1180 202.179 1187 205.679 1187 202.679C1187 199.679 1182.5 180.179 1187 180.179C1191.5 180.179 1195.5 177.679 1195.5 180.179C1195.5 182.679 1193.5 204.179 1197.5 202.679C1201.5 201.179 1207.5 204.179 1207.5 201.179C1207.5 198.179 1203.5 180.179 1207.5 180.179C1211.5 180.179 1216.5 175.679 1217 180.179C1217.5 184.679 1215 201.179 1217.5 200.179C1220 199.179 1230 202.179 1229.5 198.179C1229 194.179 1226.5 180.179 1229.5 180.179C1232.5 180.179 1236.5 177.679 1237 182.179C1237.5 186.679 1233 201.179 1237 201.179C1241 201.179 1247 201.179 1247 198.179C1247 195.179 1244.5 179.679 1248 179.179C1251.5 178.679 1256.5 177.679 1256.5 182.179C1256.5 186.679 1255.5 201.179 1258 201.179C1260.5 201.179 1267 200.679 1267.5 198.179C1268 195.679 1265 180.179 1269.5 180.179C1274 180.179 1275.5 178.179 1276 182.179C1276.5 186.179 1274.5 200.179 1278 200.179C1281.5 200.179 1286 201.179 1286 196.179C1286 191.179 1283.5 179.179 1286 179.179C1288.5 179.179 1293 177.679 1293 182.179C1293 186.679 1291 200.179 1293 200.179C1295 200.179 1301.5 201.179 1301 196.179C1300.5 191.179 1297.5 181.179 1301 180.179C1304.5 179.179 1304.5 178.735 1305.5 180.179C1306.5 181.623 1305.8 199.179 1307 199.179C1308.2 199.179 1312 198.179 1312 199.179C1312 200.179 1174.5 204.179 1174 201.179C1173.5 198.179 1174.5 161.179 1178.5 160.179C1182.5 159.179 1193.5 162.679 1193.5 160.179C1193.5 157.679 1248.5 163.679 1252.5 157.679C1256.5 151.679 1257 121.679 1247 119.179C1237 116.679 1174 111.179 1174 119.179C1174 127.179 1171.5 157.679 1177 157.679C1182.5 157.679 1255 161.179 1256.5 157.679C1258 154.179 1259.5 121.179 1252.5 119.179C1245.5 117.179 1180.17 113.179 1177 119.179C1173.83 125.179 1170 460.679 1177 461.179C1184 461.679 1315 474.179 1315.5 467.179C1316 460.179 1319 443.679 1309 443.179C1299 442.679 1170 441.679 1170 440.179C1170 438.679 1315.5 446.679 1315.5 440.179C1315.5 433.679 1310 202.439 1305.5 201.179C1301 199.919 1224 203.679 1217.5 204.179" stroke="#010088" stroke-width="4"/>
<path d="M1244 308.679C1242.83 316.679 1241.2 332.679 1244 332.679C1247.5 332.679 1251.5 334.179 1252.5 329.679C1253.5 325.179 1255 308.679 1250.5 308.679C1246.9 308.679 1243.67 308.679 1242.5 308.679" stroke="#010088" stroke-width="4"/>
</svg>
