<svg width="1698" height="549" viewBox="0 0 1698 549" fill="none" xmlns="http://www.w3.org/2000/svg">
<path d="M244 1.5C238.834 25.5 186.1 40 174.5 44C160 49 72.0002 47.5 46.5963 151C25.3072 237.735 60.5963 307.5 84.5963 315.5C108.596 323.5 298.096 330.5 302.096 323C306.096 315.5 298.096 257.5 302.096 257C306.096 256.5 369.596 255 369.596 257C369.596 259 372.096 432 370.596 433.5C369.096 435 305.596 435.5 303.596 433.5C301.596 431.5 307.096 323.5 304.596 322C302.096 320.5 100.096 316.5 100.596 319.5C101.096 322.5 100.596 323 101.596 323C102.596 323 302.596 327.5 303.096 326.5C303.596 325.5 301.596 311 303.596 310C305.596 309 369.596 308 369.596 310C369.596 312 368.096 321 369.596 321.5C371.096 322 703.096 316.5 703.596 318C704.096 319.5 703.096 323.5 700.596 323.5C698.096 323.5 370.596 325.5 369.596 326.5C368.596 327.5 367.096 343 371.596 343C376.096 343 702.596 340.5 705.096 339.5C707.596 338.5 716.096 324 713.596 323.5C711.096 323 369.096 327 369.096 326C369.096 325 371.096 309 369.596 308.5C368.096 308 314.596 311 314.596 308.5C314.596 306 313.596 303.5 315.596 303.5C317.596 303.5 359.096 303 359.096 304C359.096 305 361.096 310 359.096 310C357.096 310 314.596 311.698 314.596 310.5C314.596 309.302 312.596 302.5 314.596 302.5C316.596 302.5 316.596 303.5 317.096 302C317.596 300.5 315.596 268 318.096 266.5C320.596 265 354.596 264.5 355.096 265.5C355.596 266.5 358.096 304.5 356.596 304.5C355.096 304.5 339.596 305 337.596 304.5C335.596 304 320.096 297.5 321.096 288C322.096 278.5 324.096 273 335.096 272.5C346.096 272 352.096 278.5 351.596 283C351.096 287.5 348.096 298 342.096 299C336.096 300 330.096 300 326.096 297C322.096 294 320.596 290 321.596 286.5C322.596 283 320.096 274 334.096 273.5C348.096 273 352.096 281 352.096 283C352.096 285 349.596 294 344.596 297C339.596 300 333.096 304.5 330.596 304.5C328.096 304.5 317.596 306 317.096 303C316.596 300 315.596 267 317.596 266C319.596 265 352.596 264.5 354.596 266C356.596 267.5 355.596 304.5 357.096 304.5C358.596 304.5 359.096 304 359.096 305.5C359.096 307 358.596 309.5 360.096 309.5C361.596 309.5 370.096 310.5 370.096 308C370.096 305.5 369.596 259 370.596 256C371.596 253 382.096 237 378.096 236C374.096 235 297.596 233.5 296.596 236C295.596 238.5 300.596 257.5 303.596 257.5C306.596 257.5 366.761 258 368.596 257.5C370.431 257 380.096 239 378.096 237.5C376.096 236 371.178 237.63 369.596 236.5C368.015 235.37 372.096 231 368.596 230.5C365.096 230 304.096 229 303.596 231C303.096 233 302.596 237 306.596 236.5C310.596 236 368.596 237 368.596 236C368.596 235 370.596 232.5 368.596 231.5C366.596 230.5 340.596 231.5 339.096 230.5C337.596 229.5 339.096 227.5 338.096 226.5C337.096 225.5 336.596 225 336.596 224C336.596 223 337.096 220 336.096 220.5C335.096 221 336.096 223.5 335.596 224C335.096 224.5 334.596 226 334.096 226.5C333.596 227 334.096 230.5 332.596 230.5C331.096 230.5 303.596 230 303.096 231C302.596 232 304.096 235 303.096 235.5C302.096 236 297.596 235 297.096 236.5C296.596 238 303.096 255.5 302.596 256.5C302.096 257.5 300.596 258 300.596 263.5C300.596 269 301.596 363 303.596 364C305.596 365 323.596 359.5 324.096 364C324.596 368.5 323.096 397 325.096 397.5C327.096 398 349.096 399 349.096 397.5C349.096 396 351.596 361 349.096 360.5C346.596 360 327.096 357 325.096 360.5C323.096 364 321.096 397.5 323.096 397.5C325.096 397.5 348.096 400 349.596 398C351.096 396 352.096 361 350.596 360.5C349.096 360 324.596 356.5 323.596 360C322.596 363.5 324.096 395.5 325.596 396.5C327.096 397.5 334.596 398.5 336.096 397C337.596 395.5 338.096 361 337.096 360.5C336.096 360 338.096 381.5 336.596 382.5C335.096 383.5 325.096 381.5 325.096 382C325.096 382.5 350.596 381.5 348.596 382C346.596 382.5 338.84 381.5 338.096 383C337.352 384.5 335.096 396.5 337.596 397C340.096 397.5 350.096 400 350.596 398C351.096 396 348.096 365.5 351.596 364.5C355.096 363.5 370.096 367.5 370.096 364C370.096 360.5 370.596 312 368.596 311C366.596 310 336.596 309 335.596 311.5C334.596 314 334.096 316.5 338.096 316C342.096 315.5 352.596 313 353.096 316C353.596 319 353.596 324.5 353.096 323C352.596 321.5 353.096 317.5 352.096 316.5C351.096 315.5 321.596 313.5 321.096 316C320.596 318.5 320.596 324 321.096 323C321.596 322 319.596 317 322.096 316.5C324.596 316 335.596 315 335.596 316.5C335.596 318 339.596 326.5 336.096 327C332.596 327.5 318.596 328 317.096 327C315.596 326 313.096 313.5 316.096 313C319.096 312.5 357.096 311.5 357.096 313C357.096 314.5 358.596 327 356.596 327C354.596 327 338.596 326 337.596 327.5C336.596 329 340.596 433.182 336.596 434C332.596 434.818 320.596 432 319.596 436C318.596 440 323.596 480.5 318.096 480.5C312.596 480.5 301.096 484 299.096 480.5C297.096 477 299.096 437.773 303.596 436C308.096 434.226 371.096 433.5 371.596 436C372.096 438.5 377.596 478.5 375.596 479.5C373.596 480.5 359.096 482.5 356.596 479.5C354.096 476.5 353.596 436.5 355.096 436C356.596 435.5 705.096 435 706.596 438C708.096 441 716.096 483.5 713.596 484.5C711.096 485.5 379.596 483 377.596 482C375.596 481 369.596 438 370.596 437C371.596 436 704.596 437.5 705.596 436C706.596 434.5 703.596 343.5 705.096 341.5C706.596 339.5 716.596 323 714.596 323C712.596 323 703.596 324 703.596 323C703.596 322 705.096 318 704.096 317.5C703.096 317 372.399 320 371.096 321C369.794 322 377.096 480 375.596 480.5C374.096 481 98.5963 488 97.5963 486.5C96.5963 485 97.5963 438 100.096 437.5C102.596 437 303.096 435 303.096 437.5C303.096 440 300.596 481.5 297.596 481.5C294.596 481.5 98.5963 487.5 98.0963 485.5C97.5963 483.5 100.596 440 100.096 436.5C99.5963 433 95.0963 342.5 100.596 341C106.096 339.5 301.982 344 303.596 342C305.211 340 305.096 328 303.596 327.5C302.096 327 93.0963 321 93.0963 323C93.0963 325 98.5963 341 99.5963 341C100.596 341 302.096 340.5 302.596 343C303.096 345.5 302.096 430.549 304.596 433C307.096 435.451 370.596 433.192 371.596 434.5C372.596 435.808 373.096 436.5 375.096 436.5C377.096 436.5 701.187 433 705.096 440.5C709.005 448 711.596 465 717.596 465C723.596 465 1160.1 469.5 1164.1 465C1168.1 460.5 1169.6 437 1164.1 434C1158.6 431 717.596 431.5 717.596 429.5C717.596 427.5 714.596 421.5 720.096 420.5C725.596 419.5 1164.1 430 1164.1 426C1164.1 422 1168.1 371.5 1164.1 371.5C1160.1 371.5 718.596 373 717.596 369.5C716.596 366 714.596 360 717.096 359.5C719.596 359 1162.1 364.5 1164.1 361.5C1166.1 358.5 1170.6 289.5 1165.6 288C1160.6 286.5 718.096 288.5 717.596 285.5C717.096 282.5 714.096 278 722.096 278C730.096 278 1164.6 282.5 1165.6 281C1166.6 279.5 1168.1 275 1163.1 274.5C1158.1 274 719.096 276 717.596 274.5C716.096 273 713.096 268 717.596 268C722.096 268 1165.6 270 1165.6 268.5C1165.6 267 1019.1 269 1017.1 268C1015.1 267 944.596 230 940.596 231.5C936.596 233 860.596 265 861.096 266.5C861.596 268 873.596 269.5 879.096 267.5C884.596 265.5 940.096 239.5 941.596 239.5C943.096 239.5 1001.1 268 1003.1 268C1005.1 268 1019.6 270 1017.6 267.5C1015.6 265 972.596 246 972.096 244C971.596 242 976.596 223.5 972.096 222C967.596 220.5 909.596 220.5 908.596 222.5C907.596 224.5 910.096 242.407 908.596 244C907.096 245.592 889.596 253.5 885.596 253.5C881.596 253.5 719.096 253 717.596 255.5C716.096 258 715.096 462 717.596 462.5C720.096 463 1157.1 465.5 1160.6 462.5C1164.1 459.5 1170.1 258.5 1165.6 255C1161.1 251.5 993.596 249.287 994.096 252.5C994.596 255.712 1001.1 258.5 1005.1 258.5C1009.1 258.5 1160.6 255 1163.1 258.5C1165.6 262 1167.1 276.5 1165.1 276.5C1163.1 276.5 718.096 273.5 717.096 275C716.096 276.5 716.096 278.5 717.096 278.5C718.096 278.5 1161.6 279.5 1164.1 282.5C1166.6 285.5 1168.1 289.5 1165.6 289.5C1163.1 289.5 923.596 286 922.596 288C921.596 290 924.096 359 922.596 359.5C921.096 360 902.096 361.5 902.096 359.5C902.096 357.5 905.096 288 903.596 288C902.096 288 881.596 286 881.096 290C880.596 294 882.596 359 880.596 359.5C878.596 360 869.096 361 868.096 359.5C867.096 358 868.596 289.769 867.596 288.5C866.596 287.231 802.096 285 799.596 288.5C797.096 292 802.096 358.5 800.596 359C799.096 359.5 785.596 362 784.096 359C782.596 356 784.596 290.5 783.096 288.5C781.596 286.5 757.596 282 756.096 287.5C754.596 293 758.596 359 756.096 359C753.596 359 744.596 361 744.096 359C743.596 357 746.096 290.515 743.596 288.5C741.096 286.484 719.596 286.5 717.596 288.5C715.596 290.5 715.096 370.17 717.096 370C719.096 369.83 744.096 368 744.096 370C744.096 372 741.096 421.5 743.096 421.5C745.096 421.5 757.096 423 758.096 421.5C759.096 420 758.096 371.5 759.596 370C761.096 368.5 783.096 368.5 784.096 370.5C785.096 372.5 782.596 420 784.096 420C785.596 420 801.096 422 801.596 420C802.096 418 799.596 374.5 800.596 373.5C801.596 372.5 816.596 370.5 817.596 372C818.596 373.5 817.596 420.5 818.596 420.5C819.596 420.5 838.096 425.5 838.596 420.5C839.096 415.5 837.596 374 840.096 372.5C842.596 371 865.096 367 867.596 372.5C870.096 378 864.096 420 867.596 420C871.096 420 875.596 423 878.096 420C880.596 417 874.596 372 878.096 370.5C881.596 369 912.596 368.5 913.096 372.5C913.596 376.5 910.596 422 913.096 422C915.596 422 921.096 424 922.096 422C923.096 420 920.596 375 922.596 373C924.596 371 958.096 367.5 960.096 373C962.096 378.5 957.596 422 960.096 422C962.596 422 967.596 424 968.096 422C968.596 420 967.596 375 969.596 373C971.596 371 1001.1 368.5 1002.6 373C1004.1 377.5 1001.6 423 1004.1 423C1006.6 423 1016.1 425.5 1017.6 422C1019.1 418.5 1015.1 374.209 1017.6 373C1020.1 371.791 1046.1 369 1047.1 373C1048.1 377 1044.1 423 1047.1 423C1050.1 423 1063.1 428.5 1064.1 423C1065.1 417.5 1061.6 376.5 1064.1 373.5C1066.6 370.5 1089.6 369.5 1090.1 373C1090.6 376.5 1087.1 424.357 1089.1 425.5C1091.1 426.643 1101.6 427.5 1101.6 425.5C1101.6 423.5 1099.1 374.351 1103.1 373C1107.1 371.649 1127.1 369 1129.1 373.5C1131.1 378 1126.6 425.5 1129.1 425.5C1131.6 425.5 1142.6 428 1143.6 425.5C1144.6 423 1139.1 374.46 1144.6 373C1150.1 371.54 1165.1 374 1166.1 371.5C1167.1 369 1168.1 364.088 1164.1 363C1160.1 361.912 1147.1 363.5 1147.1 361.5C1147.1 359.5 1149.1 289.5 1144.6 289.5C1140.1 289.5 1126.6 288 1127.6 291C1128.6 294 1132.1 357.5 1129.1 359.5C1126.1 361.5 1104.6 363.5 1102.1 361.5C1099.6 359.5 1101.1 291.595 1099.1 289.5C1097.1 287.404 1090.1 285 1089.1 289.5C1088.1 294 1091.6 361.5 1089.1 361.5C1086.6 361.5 1065.1 361.5 1064.6 360C1064.1 358.5 1067.1 293.325 1064.6 290.343C1062.1 287.362 1045.6 288 1045.6 289.5C1045.6 291 1049.1 361.5 1047.1 361.5C1045.1 361.5 1020.6 363 1019.1 361C1017.6 359 1021.1 290.5 1019.1 289.5C1017.1 288.5 1004.1 287 1003.1 289.5C1002.1 292 1004.6 359 1002.6 360C1000.6 361 971.596 362 970.596 360C969.596 358 973.096 291.588 970.596 289.5C968.096 287.412 961.096 286 960.096 289.5C959.096 293 962.096 359 960.096 360C958.096 361 719.106 357.5 717.596 361C716.086 364.5 715.096 371.5 717.596 371.5C720.096 371.5 1164.1 373.5 1164.6 370.5C1165.1 367.5 1167.1 366.305 1164.6 364.5C1162.1 362.695 720.268 357.5 718.096 360C715.925 362.5 715.096 463 718.096 463.5C721.096 464 1163.6 471.5 1164.1 460.5C1164.6 449.5 1169.6 256 1165.6 254C1161.6 252 996.096 254.5 991.596 252.5C987.096 250.5 945.596 229.5 941.596 230.5C937.596 231.5 863.096 265.259 863.596 266.5C864.096 267.741 881.596 269.5 883.596 267.5C885.596 265.5 934.596 241.36 940.596 241.5C946.596 241.64 1003.6 265.5 1000.1 268C996.596 270.5 719.155 269 718.096 267.5C717.038 266 716.096 255.5 717.096 255C718.096 254.5 883.096 255.955 885.596 254.5C888.096 253.045 906.104 247.5 907.596 244C909.089 240.5 906.096 224.5 910.096 223.5C914.096 222.5 970.251 221 972.096 223.5C973.941 226 971.096 240.486 973.096 242.5C975.096 244.513 990.43 254 992.596 254C994.763 254 1164.18 254 1165.1 255C1166.01 256 1167.1 257 1165.6 258C1164.1 259 1003.6 258.5 1004.6 259.5C1005.6 260.5 1014.6 267.5 1019.1 267.5C1023.6 267.5 1165.6 267.5 1166.1 269C1166.6 270.5 1152.1 469 1166.1 468.5C1180.1 468 1361.1 479 1364.6 477C1368.1 475 1360.1 467.5 1364.6 466C1369.1 464.5 1390.1 462.5 1390.6 466C1391.1 469.5 1393.1 477 1389.6 477C1386.1 477 1364.1 478 1363.6 476C1363.1 474 1361.6 462.5 1363.6 463C1365.6 463.5 1363.6 316 1366.1 314.5C1368.6 313 1381.1 312.5 1381.1 314.5C1381.1 316.5 1387.1 463 1384.6 463C1382.1 463 1363.6 464.5 1363.1 461.5C1362.6 458.5 1365.1 315.5 1364.6 314C1364.1 312.5 1359.1 302.5 1363.1 301C1367.1 299.5 1383.6 298 1383.1 301C1382.6 304 1383.6 312.736 1380.6 313C1377.6 313.264 1364.6 315 1363.6 313.5C1362.6 312 1361.6 302 1361.6 301C1361.6 300 1357.1 290.5 1361.6 290.5C1366.1 290.5 1587.1 288 1587.1 290.5C1587.1 293 1590.6 300 1586.1 301C1581.6 302 1362.54 300 1361.6 299C1360.65 298 1359.6 291 1359.6 289.5C1359.6 288 1353.1 254 1363.6 254.5C1374.1 255 1591.6 254.5 1591.6 259C1591.6 263.5 1594.6 284.979 1589.1 287.5C1583.6 290.021 1363.6 294 1361.6 289.5C1359.6 285 1355.6 272 1359.6 270.5C1363.6 269 1589.6 268 1590.6 271.5C1591.6 275 1595.1 277.5 1590.6 277.5C1586.1 277.5 1360.51 274.5 1359.6 277.5C1358.69 280.5 1358.1 288.5 1362.6 288.5C1367.1 288.5 1368.1 289.5 1368.1 287.5C1368.1 285.5 1366.1 279.5 1369.6 279C1373.1 278.5 1372.1 288.5 1374.1 288.5C1376.1 288.5 1376.1 289 1376.6 284C1377.1 279 1377.1 278.5 1379.1 278.5C1381.1 278.5 1379.6 289.5 1383.1 288.5C1386.6 287.5 1384.6 279 1387.6 279C1390.6 279 1390.1 288.5 1393.1 288.5C1396.1 288.5 1392.1 279 1396.1 279C1400.1 279 1399.1 288 1402.6 287.5C1406.1 287 1403.1 279 1406.6 279C1410.1 279 1408.1 289.5 1411.1 288.5C1414.1 287.5 1411.6 279.5 1415.1 279.5C1418.6 279.5 1417.1 288 1421.1 287.5C1425.1 287 1421.6 279.5 1425.1 279.5C1428.6 279.5 1426.6 287.5 1430.6 287.5C1434.6 287.5 1432.1 279.5 1435.6 279.5C1439.1 279.5 1436.6 287.5 1439.6 287.5C1442.6 287.5 1442.1 279.5 1444.6 279.5C1447.1 279.5 1446.1 287.5 1449.1 287.5C1452.1 287.5 1449.1 279.5 1453.1 279.5C1457.1 279.5 1452.6 287.5 1456.6 287.5C1460.6 287.5 1458.1 280 1461.6 280C1465.1 280 1461.6 287.5 1465.6 287.5C1469.6 287.5 1466.6 280 1470.6 280C1474.6 280 1472.6 287.5 1476.1 287.5C1479.6 287.5 1478.1 280 1481.6 280C1485.1 280 1482.6 288.5 1486.6 288C1490.6 287.5 1487.1 280 1491.6 280C1496.1 280 1492.6 288.5 1497.1 288C1501.6 287.5 1499.1 279.5 1503.1 280C1507.1 280.5 1502.6 287.5 1507.1 287.5C1511.6 287.5 1508.1 280 1511.6 280C1515.1 280 1512.1 287.5 1517.1 287C1522.1 286.5 1516.6 280 1521.6 280C1526.6 280 1522.69 288 1525.4 287.5C1528.1 287 1527.6 280.5 1531.1 280.5C1534.6 280.5 1531.1 288 1534.6 287.5C1538.1 287 1535.6 281 1539.1 281C1542.6 281 1539.1 287 1543.1 287C1547.1 287 1544.1 280.5 1546.6 280.5C1549.1 280.5 1548.1 287 1550.6 287C1553.1 287 1552.6 280.5 1555.6 280.5C1558.6 280.5 1555.6 286.5 1559.1 286.5C1562.6 286.5 1561.1 280.5 1564.1 280.5C1567.1 280.5 1565.6 287 1568.6 287C1571.6 287 1569.6 280.5 1573.1 280.5C1576.6 280.5 1574.1 287.5 1577.1 287C1580.1 286.5 1577.1 281 1581.6 281C1586.1 281 1582.6 287.363 1585.6 287.5C1588.6 287.637 1589.6 300 1588.6 300.5C1587.6 301 1585.6 298.5 1584.6 301.5C1583.6 304.5 1583.1 318.5 1580.1 318.5C1577.1 318.5 1564.6 321.5 1563.1 318.5C1561.6 315.5 1558.1 303.728 1559.6 302.5C1561.1 301.272 1583.6 300 1583.1 302.5C1582.6 305 1580.1 317.5 1580.1 319.5C1580.1 321.5 1584.1 457 1575.1 458C1566.1 459 1558.6 458 1558.1 454.5C1557.6 451 1560.6 321.277 1563.1 320.5C1565.6 319.723 1578.6 317.5 1579.1 320.5C1579.6 323.5 1576.1 458.5 1578.1 458.5C1580.1 458.5 1583.6 457.5 1583.6 459.5C1583.6 461.5 1587.6 476.5 1582.1 475.5C1576.6 474.5 1555.6 477.5 1555.1 475.5C1554.6 473.5 1552.1 460.5 1554.6 459.5C1557.1 458.5 1559.1 460 1558.6 458.5C1558.1 457 1563.6 321.5 1562.6 319.5C1561.6 317.5 1561.6 303.735 1558.6 302.5C1555.6 301.265 1543.6 301.5 1542.6 302.5C1541.6 303.5 1541.1 317 1538.6 317.5C1536.1 318 1523.1 318.5 1521.6 317.5C1520.1 316.5 1518.1 303 1519.1 302.5C1520.1 302 1541.1 301.5 1541.1 302.5C1541.1 303.5 1539.1 317 1539.1 318.5C1539.1 320 1541.1 457.5 1539.6 458C1538.1 458.5 1519.1 462 1519.1 458C1519.1 454 1522.1 319.231 1521.6 318C1521.1 316.769 1519.1 302.912 1517.6 302C1516.1 301.088 1504.1 301 1502.6 302C1501.1 303 1499.1 313.5 1499.1 315C1499.1 316.5 1502.6 457 1500.6 458C1498.6 459 1483.1 460.5 1481.6 457.5C1480.1 454.5 1481.6 315 1483.1 314C1484.6 313 1500.1 312.5 1500.6 313.5C1501.1 314.5 1499.6 458.526 1500.6 458.763C1501.6 459 1503.6 458.5 1503.6 460C1503.6 461.5 1506.1 476.5 1502.1 476.5C1498.1 476.5 1479.1 477 1479.1 475.5C1479.1 474 1476.6 461.237 1479.1 460C1481.6 458.763 1482.1 459 1482.6 457.5C1483.1 456 1485.1 318 1484.1 315C1483.1 312 1477.6 304.162 1480.1 302.5C1482.6 300.838 1504.1 300 1503.1 302.5C1502.1 305 1502.6 312.044 1498.6 312.5C1494.6 312.956 1483.1 315 1481.6 313.5C1480.1 312 1481.1 302.5 1478.6 302C1476.1 301.5 1464.6 300.5 1462.6 302.5C1460.6 304.5 1459.1 312 1459.1 314.5C1459.1 317 1459.1 459 1461.6 459.5C1464.1 460 1467.1 458.5 1467.6 460.5C1468.1 462.5 1470.1 471.5 1468.1 473.5C1466.1 475.5 1442.6 477.5 1441.6 476C1440.6 474.5 1438.1 460.5 1440.6 460.5C1443.1 460.5 1443.6 460.026 1443.6 458.763C1443.6 457.5 1442.6 314.5 1444.6 313.5C1446.6 312.5 1460.1 315 1460.6 314C1461.1 313 1462.6 303.361 1461.6 302C1460.6 300.638 1445.6 300.5 1443.6 301.5C1441.6 302.5 1443.1 311.5 1444.1 312C1445.1 312.5 1458.6 314.5 1459.6 313.5C1460.6 312.5 1463.1 303 1461.6 301.5C1460.1 300 1425.1 299.5 1423.6 302C1422.1 304.5 1423.1 311 1421.1 311.5C1419.1 312 1404.2 313 1403.4 311.5C1402.6 310 1400.6 301.5 1401.6 301C1402.6 300.5 1422.6 300 1423.1 301C1423.6 302 1421.1 311.5 1421.1 312.5C1421.1 313.5 1419.1 459.5 1421.1 459.5C1423.1 459.5 1425.1 459.5 1425.1 462C1425.1 464.5 1426.6 476 1423.1 476C1419.6 476 1400.6 477.5 1400.6 475.5C1400.6 473.5 1398.1 462 1400.6 462C1403.1 462 1404.1 461.5 1404.1 460.5C1404.1 459.5 1404.1 314.104 1404.1 313C1404.1 311.896 1402.6 302.108 1400.1 301C1397.6 299.892 1362.6 300.884 1362.6 300C1362.6 299.116 1583.6 300.5 1584.1 302C1584.6 303.5 1579.6 317.5 1579.6 319C1579.6 320.5 1578.6 459 1577.1 459C1575.6 459 1555.63 458 1554.6 460C1553.56 462 1554.1 474 1555.6 475C1557.1 476 1584.1 477 1584.6 475.5C1585.1 474 1585.1 460 1583.1 459.5C1581.1 459 1556.63 458 1555.1 460C1553.56 462 1553.6 474 1556.1 474.5C1558.6 475 1596.6 472 1598.6 476.5C1600.6 481 1606.1 507.5 1598.6 508C1591.1 508.5 1309.1 517 1309.1 510.5C1309.1 504 1304.6 478.336 1310.6 477C1316.6 475.664 1349.6 478.5 1349.6 474C1349.6 469.5 1352.6 462.5 1347.6 461.5C1342.6 460.5 1324.6 460 1322.6 463C1320.6 466 1318.99 474.031 1321.1 475C1323.21 475.969 1349.6 477 1349.6 476C1349.6 475 1351.6 464.669 1349.1 463C1346.6 461.331 1323.1 460 1321.1 463C1319.1 466 1320.1 477 1321.1 477C1322.1 477 1349.6 478 1350.1 476.5C1350.6 475 1351.1 462 1349.6 461.5C1348.1 461 1345.6 461.5 1345.1 460.5C1344.6 459.5 1346.1 448 1341.6 447.5C1337.1 447 1324.6 444.5 1324.1 447.5C1323.6 450.5 1321.1 463 1324.6 462.5C1328.1 462 1349.1 461.5 1349.6 462C1350.1 462.5 1349.1 476 1349.6 476.5C1350.1 477 1542.1 478.5 1543.1 476.5C1544.1 474.5 1546.1 460.5 1543.1 459.5C1540.1 458.5 1515.1 457.5 1515.1 459.5C1515.1 461.5 1513.6 476.5 1515.1 476.5C1516.6 476.5 1543.6 478 1544.6 476.5C1545.6 475 1546.6 461.628 1544.6 460.5C1542.6 459.372 1516.17 458 1515.6 459.5C1515.02 461 1513.6 476 1514.1 476.5C1514.6 477 1595.75 475 1597.6 477C1599.44 479 1602.1 505.891 1599.1 507C1596.1 508.109 1312.22 512 1310.6 510C1308.97 508 1306.1 480.363 1310.6 478.5C1315.1 476.637 1400.1 477.5 1400.6 476.5C1401.1 475.5 1398.67 464.5 1401.1 463C1403.52 461.5 1421.6 460 1423.6 461.5C1425.6 463 1424.1 474 1425.6 475.5C1427.1 477 1467.6 477.5 1468.6 476C1469.6 474.5 1469.6 460 1467.6 459.5C1465.6 459 1440.1 458.5 1439.6 460C1439.1 461.5 1439.6 475.231 1440.6 476C1441.6 476.769 1477.6 478 1478.1 476.5C1478.6 475 1477.1 461.5 1479.1 460.5C1481.1 459.5 1501.1 458.5 1502.6 459.5C1504.1 460.5 1502.1 476.5 1504.1 476.5C1506.1 476.5 1545.1 478 1546.1 475.5C1547.1 473 1546.6 459.5 1544.1 459C1541.6 458.5 1541.36 459.5 1540.6 458C1539.83 456.5 1540.6 319.182 1538.1 318.5C1535.6 317.818 1523.6 316.5 1522.1 318.5C1520.6 320.5 1517.6 458 1520.1 458C1522.6 458 1545.1 457.5 1546.1 460C1547.1 462.5 1548.6 476 1546.6 479.5" stroke="#010088" stroke-width="7"/>
<path d="M818.5 359.5C817.166 337.5 815.6 293 820 291C825.5 288.5 851.5 287 851 290C850.5 293 857 357.5 853 359.5C849 361.5 825 362 822.5 359.5C820 357 814 293 817 290C820 287 851 286 851 287C851 288 857 360.5 855 361C853.4 361.4 831 361.167 820 361" stroke="#010088" stroke-width="7"/>
<path d="M882.5 420.5C882.333 405.167 884.6 374.8 895 376C905.4 377.2 908 407.5 908 422.5M927.5 420.5C926.333 405.667 926.8 376 938 376C949.2 376 952.333 408 952.5 424M972.5 424C971 408 970.7 376 981.5 376C992.3 376 997 408 998 424M939.5 249.5C937 249.167 931.9 249.9 931.5 255.5C931 262.5 937 264 939.5 264C942 264 946 261.5 945 255.5C944.2 250.7 941 249.5 939.5 249.5Z" stroke="#010088" stroke-width="7"/>
<path d="M805 399C807.5 398.5 812.5 398.2 812.5 401C812.5 404.5 812.5 416 810 416C807.5 416 804 416.5 804 412.5C804 408.5 803.5 400.228 805 399.5M887 293.5C887 293.704 887 293.906 887 294.105M887 294.105C886.988 310 886.525 310 888.5 310C890.5 310 899 311 898.5 310C898 309 899.5 295.5 897.5 295C895.5 294.5 887.5 293.21 887 294.105ZM935 293.5C934.333 298.333 933.2 308.2 934 309C935 310 942 310.5 943 309C944 307.5 945.5 293.5 943 293.5C940.5 293.5 934 293.5 934 294M979 341C978.333 344 977.4 350.2 979 351C981 352 989 354 989 351C989 348 992 338.5 989 338.5C986 338.5 979 336 979 338.5C979 340.5 979 345 979 347M1108.5 295C1107.83 300.667 1106.9 312 1108.5 312C1110.5 312 1116.5 315 1117.5 312C1118.5 309 1121 295 1118.5 295C1116.5 295 1110 295 1107 295M933.5 460.5C932.667 452.167 932.9 435.6 940.5 436C948.1 436.4 949.333 452.5 949 460.5M939.5 218C938.5 212.167 936.9 200.5 938.5 200.5C940.1 200.5 940.833 212.167 941 218" stroke="#010088" stroke-width="7"/>
<path d="M124.5 473.5C129.667 474.167 140 475.1 140 473.5C140 471.5 140.5 445.5 131.5 446C124.3 446.4 122.5 464.5 122.5 473.5M163.5 473.5C168 474.334 177.2 475.5 178 473.5C179 471 179.5 446 171.5 446C165.1 446 163.5 462.667 163.5 471M202.5 473.5C207.333 474.834 217.1 476.7 217.5 473.5C218 469.5 218 446 211 446C205.4 446 203 462.667 202.5 471M242.5 471C246.5 472 254.6 473.4 255 471C255.5 468 255.5 446 250.5 446C246.5 446 242.5 461.333 241 469M279.5 471C283.667 472.333 292.2 474.2 293 471C294 467 294 446 288 446C283.2 446 280.333 461.333 279.5 469M328.5 478.5C326.167 467 323.8 443.8 333 443C342.2 442.2 346.167 466.333 347 478.5M387 470C392 471.667 402 474 402 470C402 465 401 443.5 393 444.5C386.6 445.3 385.333 461.833 385.5 470M430.5 470C435.333 470.667 445.1 471.6 445.5 470C446 468 448 445.5 438.5 446C430.9 446.4 429 461.167 429 468.5M474.5 470C478.5 471 486.7 472.4 487.5 470C488.5 467 488.5 446 481.5 446C475.9 446 474.5 461 474.5 468.5M518.5 470C523 471.167 532.2 472.8 533 470C534 466.5 533.5 446 526 446C520 446 516.833 461 516 468.5M564.5 470C568.667 470.5 577.2 471.2 578 470C579 468.5 579.5 446 572 446C566 446 563.5 461 563 468.5M609.5 470C613.5 470.5 621.6 471.2 622 470C622.5 468.5 623.5 446 616.5 446C610.9 446 608.5 461 608 468.5M654 470C658.667 471 668.2 472.4 669 470C670 467 669 446 661.5 446C655.5 446 652.667 462 652 470M650 374C648.667 384.667 646.8 406 650 406C654 406 670.5 409.5 672 404.5C673.5 399.5 674 374 669 374C665 374 654 373.667 649 373.5M427.5 407.5C434.167 409 447.5 411.1 447.5 407.5C447.5 403 450.5 375.5 445.5 376C440.5 376.5 426 368 426 376C426 382.4 426 398.667 426 406M430.5 370C434.333 370.167 442.1 370.1 442.5 368.5C443 366.5 443.5 356 438.5 356C434.5 356 431.5 363.333 430.5 367" stroke="#010088" stroke-width="7"/>
<path d="M562 367C566.333 367.5 575 368.2 575 367C575 365.5 577 354.5 569.5 353.5C563.5 352.7 562 360.5 562 364.5M125.5 368.5C129.167 369.333 136.5 370.5 136.5 368.5C136.5 366 138.5 352.5 132 352.5C126.8 352.5 125.5 361.833 125.5 366.5M236.5 408.5C243 409 256.1 409.7 256.5 408.5C257 407 260 378.5 254.5 377.5C249 376.5 236.5 375.5 236.5 377.5C236.5 379.5 237 406.321 238 407.5" stroke="#010088" stroke-width="7"/>
<path d="M1177 165.679C1173.5 265.846 1168 466.579 1174 468.179C1181.5 470.179 1310.5 477.179 1311.5 468.179C1312.5 459.179 1320.5 164.179 1303 163.179C1285.5 162.179 1177 160.679 1177 163.179C1177 165.679 1168.5 460.679 1175 465.679C1181.5 470.679 1312 474.679 1313.5 470.179C1315 465.679 1313.5 171.179 1303 169.679C1292.5 168.179 1180.5 163.179 1180 168.179C1179.5 173.179 1174 204.179 1177 203.679C1180 203.179 1187 206.679 1187 203.679C1187 200.679 1182.5 181.179 1187 181.179C1191.5 181.179 1195.5 178.679 1195.5 181.179C1195.5 183.679 1193.5 205.179 1197.5 203.679C1201.5 202.179 1207.5 205.179 1207.5 202.179C1207.5 199.179 1203.5 181.179 1207.5 181.179C1211.5 181.179 1216.5 176.679 1217 181.179C1217.5 185.679 1215 202.179 1217.5 201.179C1220 200.179 1230 203.179 1229.5 199.179C1229 195.179 1226.5 181.179 1229.5 181.179C1232.5 181.179 1236.5 178.679 1237 183.179C1237.5 187.679 1233 202.179 1237 202.179C1241 202.179 1247 202.179 1247 199.179C1247 196.179 1244.5 180.679 1248 180.179C1251.5 179.679 1256.5 178.679 1256.5 183.179C1256.5 187.679 1255.5 202.179 1258 202.179C1260.5 202.179 1267 201.679 1267.5 199.179C1268 196.679 1265 181.179 1269.5 181.179C1274 181.179 1275.5 179.179 1276 183.179C1276.5 187.179 1274.5 201.179 1278 201.179C1281.5 201.179 1286 202.179 1286 197.179C1286 192.179 1283.5 180.179 1286 180.179C1288.5 180.179 1293 178.679 1293 183.179C1293 187.679 1291 201.179 1293 201.179C1295 201.179 1301.5 202.179 1301 197.179C1300.5 192.179 1297.5 182.179 1301 181.179C1304.5 180.179 1304.5 179.735 1305.5 181.179C1306.5 182.623 1305.8 200.179 1307 200.179C1308.2 200.179 1312 199.179 1312 200.179C1312 201.179 1174.5 205.179 1174 202.179C1173.5 199.179 1174.5 162.179 1178.5 161.179C1182.5 160.179 1193.5 163.679 1193.5 161.179C1193.5 158.679 1248.5 164.679 1252.5 158.679C1256.5 152.679 1257 122.679 1247 120.179C1237 117.679 1174 112.179 1174 120.179C1174 128.179 1171.5 158.679 1177 158.679C1182.5 158.679 1255 162.179 1256.5 158.679C1258 155.179 1259.5 122.179 1252.5 120.179C1245.5 118.179 1180.17 114.179 1177 120.179C1173.83 126.179 1170 461.679 1177 462.179C1184 462.679 1315 475.179 1315.5 468.179C1316 461.179 1319 444.679 1309 444.179C1299 443.679 1170 442.679 1170 441.179C1170 439.679 1315.5 447.679 1315.5 441.179C1315.5 434.679 1310 203.439 1305.5 202.179C1301 200.919 1224 204.679 1217.5 205.179" stroke="#010088" stroke-width="7"/>
<path d="M1244 309.679C1242.83 317.679 1241.2 333.679 1244 333.679C1247.5 333.679 1251.5 335.179 1252.5 330.679C1253.5 326.179 1255 309.679 1250.5 309.679C1246.9 309.679 1243.67 309.679 1242.5 309.679" stroke="#010088" stroke-width="7"/>
</svg>
