<svg width="201" height="272" viewBox="0 0 201 272" fill="none" xmlns="http://www.w3.org/2000/svg">
<path d="M33.5766 114.336C34.1837 114.055 34.7404 113.676 35.2243 113.213L37.8112 111.315C39.9203 109.78 42.1117 108.36 44.402 107.023C45.9014 106.132 47.4173 105.257 49.0156 104.497C49.6911 104.184 50.3667 103.837 51.0422 103.507C53.4414 102.317 55.9059 101.265 58.4239 100.354L62.1312 99.0831C63.7789 98.5053 65.4266 98.1257 66.959 97.68C69.3811 96.9867 71.9021 96.5245 74.2913 96.0293C75.4297 95.7999 76.5791 95.6291 77.735 95.5176C79.1684 95.402 80.6019 95.2204 82.0354 95.0884C83.09 94.9893 84.161 95.0884 85.2155 94.8903C87.5285 94.7 89.8519 94.6724 92.1688 94.8078C93.6406 94.8142 95.1103 94.919 96.5681 95.1214C96.738 95.1378 96.9091 95.1378 97.0789 95.1214C98.2818 95.1214 99.4681 95.3855 100.654 95.5011C102.5 95.6826 104.312 96.0623 106.125 96.3924C108.248 96.7649 110.35 97.2553 112.419 97.8616C114.199 98.4063 115.978 98.885 117.741 99.5123C119.998 100.255 122.173 101.163 124.332 102.104C125.98 102.83 127.627 103.672 129.275 104.497C131.35 105.475 133.364 106.577 135.306 107.799L139.392 110.423C141.386 111.728 143.215 113.213 145.06 114.699C148.252 117.308 151.263 120.132 154.073 123.15C155.292 124.421 156.38 125.792 157.517 127.129C158.653 128.466 159.724 129.852 160.812 131.272C161.899 132.692 163.02 134.573 164.107 136.224C164.799 137.325 165.458 138.425 166.085 139.525C167.132 141.3 168.084 143.129 168.935 145.006C169.413 146.145 169.94 147.267 170.484 148.307C171.105 149.585 171.655 150.897 172.132 152.236C173.295 155.39 174.296 158.602 175.13 161.86C175.608 163.758 176.02 165.673 176.317 167.604C176.482 168.594 176.679 169.568 176.861 170.542C176.959 171.153 176.992 171.764 177.058 172.375C177.157 173.266 177.239 174.157 177.371 175.032C177.569 176.336 177.371 177.657 177.684 178.928C177.717 179.169 177.717 179.413 177.684 179.654C177.684 181.965 177.684 184.276 177.684 186.571C177.684 187.545 177.454 188.486 177.47 189.459C177.462 190.694 177.346 191.926 177.124 193.141C177.025 193.817 177.009 194.494 176.91 195.187C176.465 198.552 175.821 201.886 174.982 205.174C174.62 206.544 174.241 207.898 173.829 209.235C173.269 211.051 172.659 212.833 172.016 214.616C171.505 216.036 170.896 217.422 170.369 218.826L170.22 219.205L170.451 219.469C170.892 219.456 171.332 219.418 171.769 219.354C173.437 219.087 175.132 219.043 176.811 219.222C179.549 219.443 182.234 220.095 184.769 221.153C186.865 222.021 188.832 223.171 190.619 224.57C191.529 225.249 192.394 225.988 193.206 226.782C194.5 228.06 195.649 229.477 196.633 231.008C197.094 231.767 197.589 232.526 197.984 233.319C198.884 235.061 199.586 236.9 200.077 238.799C200.604 240.577 200.865 242.424 200.851 244.279C200.851 245.039 200.851 245.798 200.851 246.557C200.817 249.387 200.258 252.186 199.203 254.811C198.511 256.642 197.609 258.387 196.518 260.011C194.357 263.184 191.549 265.862 188.279 267.868C187.573 268.298 186.841 268.684 186.088 269.024C183.851 270.083 181.477 270.822 179.035 271.219C177.11 271.551 175.153 271.662 173.203 271.549C171.39 271.418 169.596 271.103 167.848 270.608C166.066 270.081 164.339 269.385 162.69 268.528C161.259 267.781 159.907 266.89 158.653 265.871C157.58 265.018 156.577 264.079 155.655 263.065C154.337 261.615 153.172 260.033 152.178 258.344C150.727 255.841 149.724 253.104 149.212 250.255C149.212 250.024 149.097 249.793 149.031 249.562C148.899 249.034 148.833 249 148.388 249.38C147.663 249.958 146.922 250.519 146.246 251.163C145.571 251.807 144.599 252.467 143.857 253.111C142.209 254.464 140.397 255.702 138.601 256.907C136.014 258.558 133.361 260.209 130.626 261.628C128.731 262.619 126.853 263.593 124.892 264.435C122.058 265.656 119.175 266.762 116.225 267.736C113.052 268.74 109.822 269.556 106.553 270.179L101.198 271.137H100.687C99.534 271.137 98.3806 271.351 97.2272 271.5H96.9142C95.0193 271.5 93.1574 271.78 91.2626 271.747C89.3677 271.714 87.2751 271.747 85.2814 271.747C83.8809 271.665 82.4803 271.632 81.0798 271.417C80.2395 271.285 79.4321 271.252 78.5258 271.153C77.6196 271.054 76.5651 270.889 75.5765 270.707L70.6334 269.733C68.9658 269.412 67.3159 269.004 65.6903 268.512C64.1414 268.066 62.5926 267.621 61.0767 267.109C58.9512 266.382 56.8586 265.64 54.8155 264.715C53.1678 263.989 51.5201 263.279 49.8724 262.47C48.2247 261.661 46.4122 260.638 44.7151 259.664C43.0179 258.69 41.0407 257.386 39.2612 256.165C37.4817 254.943 35.5209 253.474 33.7249 252.038C31.3522 250.139 29.1937 248.043 27.0188 245.947C25.8983 244.874 24.8438 243.751 23.7234 242.645C22.603 241.539 21.9274 240.648 21.1035 239.608C19.2087 237.231 17.3962 234.821 15.7321 232.295C14.4468 230.347 13.2111 228.367 12.0906 226.303C11.135 224.553 10.2452 222.771 9.37193 220.971C8.166 218.46 7.0935 215.887 6.15892 213.263C5.81291 212.338 5.54927 211.381 5.20326 210.44C5.02201 209.961 5.08792 209.763 5.56575 209.598C6.63675 209.218 7.69128 208.789 8.74581 208.393L20.7575 203.92L30.5119 200.305L35.0431 198.654H35.3397C35.4052 198.633 35.4764 198.638 35.538 198.669C35.5996 198.7 35.6467 198.754 35.6692 198.819C35.7963 199.137 35.9063 199.463 35.9987 199.793C36.4492 201.416 36.9995 203.009 37.6464 204.563C38.5056 206.698 39.5075 208.771 40.6453 210.77C42.0807 213.24 43.6942 215.601 45.473 217.835C46.2804 218.875 47.1207 219.832 48.0105 220.823C48.6531 221.549 49.2957 222.259 49.9712 222.936C51.5367 224.474 53.187 225.924 54.9143 227.277C56.216 228.301 57.5671 229.242 58.9347 230.149C60.081 230.909 61.2692 231.604 62.4937 232.229C63.1693 232.576 63.8119 232.972 64.4875 233.302C65.5255 233.814 66.58 234.359 67.6675 234.771C69.3152 235.399 70.9629 236.059 72.6106 236.571C74.6687 237.245 76.7649 237.796 78.8883 238.221C80.3713 238.502 81.8707 238.667 83.3536 238.882C85.9753 239.222 88.6217 239.333 91.2626 239.212C92.493 239.19 93.7206 239.085 94.9369 238.898C95.5466 238.783 96.1727 238.733 96.7823 238.667C98.8548 238.422 100.908 238.036 102.928 237.512C106.055 236.702 109.109 235.631 112.057 234.309C115.418 232.823 118.62 230.998 121.613 228.862C123.261 227.723 124.727 226.501 126.194 225.214C126.985 224.537 127.726 223.827 128.468 223.101C130.019 221.538 131.477 219.884 132.834 218.149C134.721 215.78 136.424 213.269 137.925 210.638C138.749 209.218 139.441 207.716 140.133 206.214C140.825 204.712 141.402 203.177 141.946 201.609C142.529 199.989 143.013 198.335 143.396 196.657C143.725 195.154 144.071 193.652 144.368 192.134C144.516 191.358 144.5 190.483 144.648 189.773C144.895 188.452 144.763 187.099 145.01 185.778C145.044 185.267 145.044 184.754 145.01 184.243C145.066 182.281 144.989 180.318 144.78 178.367C144.348 173.817 143.38 169.334 141.896 165.012C141.302 163.289 140.62 161.598 139.853 159.945C138.639 157.291 137.212 154.741 135.586 152.318C134.384 150.518 133.08 148.787 131.681 147.135C131.022 146.376 130.346 145.65 129.654 144.94C129.258 144.511 128.912 144.032 128.484 143.636C126.625 141.88 124.672 140.227 122.635 138.684C120.884 137.35 119.045 136.137 117.131 135.052C115.803 134.223 114.434 133.463 113.029 132.774C111.661 132.213 110.326 131.586 108.942 131.123C107.216 130.477 105.456 129.926 103.67 129.473C101.643 128.911 99.5834 128.548 97.5403 128.169C96.634 127.987 95.6949 128.004 94.7721 127.888C91.66 127.618 88.533 127.563 85.4132 127.723C84.2928 127.723 83.1724 127.987 82.0354 128.07C80.7116 128.209 79.3968 128.424 78.0974 128.713C76.631 128.961 75.214 129.374 73.797 129.753C70.624 130.647 67.545 131.847 64.6028 133.335C62.7749 134.209 61.003 135.196 59.2972 136.29C57.4847 137.462 55.7546 138.783 54.0246 140.087C53.3492 140.597 52.7054 141.149 52.0968 141.737C50.7621 143.025 49.411 144.313 48.1588 145.683C45.3694 148.697 42.9316 152.02 40.8924 155.587C39.2424 158.524 37.8265 161.588 36.6578 164.748C36.3777 165.524 36.18 166.399 35.9328 167.109C35.8504 167.34 35.7845 167.571 35.7022 167.786C35.6198 168 35.4385 168.083 35.2078 168.017L34.4334 167.736L27.9744 165.326C25.9478 164.567 23.9376 163.791 21.9109 163.048L15.8144 160.836L7.42765 157.7L1.64423 155.554L1.16639 155.356C1.06813 155.323 0.983805 155.258 0.927012 155.171C0.870219 155.084 0.844266 154.98 0.853332 154.877V21.3842C0.853332 14.9465 0.853332 8.50869 0.853332 2.05442V1.13002C0.855451 1.07798 0.867793 1.02687 0.88965 0.979611C0.911507 0.932354 0.94245 0.889879 0.98071 0.854615C1.01897 0.819351 1.0638 0.791992 1.11262 0.774102C1.16145 0.756212 1.21332 0.748145 1.26526 0.750358H32.8681C33.5272 0.750358 33.5602 0.750357 33.5766 1.47667V19.6345C33.5766 21.2852 33.3954 21.1531 35.0431 21.1531H135.289C135.34 21.1531 135.391 21.1634 135.438 21.1835C135.485 21.2036 135.528 21.2331 135.563 21.2701C135.598 21.3071 135.626 21.3509 135.644 21.3989C135.662 21.4469 135.67 21.4981 135.668 21.5493C135.668 21.8299 135.668 22.1105 135.668 22.3912V52.5826C135.668 53.9692 135.668 53.8372 134.366 53.8372H35.1584C33.3624 53.8372 33.5107 53.6226 33.5107 55.4879V114.336H33.5766Z" fill="white"/>
<path d="M200.489 10.9865C200.489 12.9675 199.903 14.9041 198.805 16.5515C197.706 18.1989 196.145 19.4832 194.319 20.242C192.492 21.0009 190.482 21.2003 188.542 20.815C186.603 20.4297 184.821 19.477 183.421 18.0774C182.022 16.6778 181.068 14.8939 180.68 12.9514C180.293 11.0088 180.488 8.99469 181.243 7.16353C181.997 5.33236 183.277 3.76634 184.919 2.66337C186.562 1.5604 188.494 0.969974 190.471 0.96671C191.79 0.948997 193.1 1.19595 194.322 1.69301C195.544 2.19007 196.655 2.92719 197.588 3.86095C198.522 4.7947 199.26 5.9062 199.758 7.12996C200.256 8.35372 200.505 9.66499 200.489 10.9865Z" fill="white"/>
<path d="M90.8036 255.506V246.311C90.8036 245.255 90.8036 245.238 91.7922 245.222C98.1232 245.029 104.38 243.797 110.312 241.574C114.952 239.905 119.377 237.689 123.494 234.971C126.43 233.02 129.187 230.81 131.732 228.368C132.738 227.394 133.776 226.42 134.715 225.364C135.654 224.307 136.758 223.036 137.714 221.831C140.266 218.543 142.506 215.023 144.403 211.316C145.753 208.654 146.904 205.895 147.847 203.063C148.833 200.168 149.582 197.198 150.088 194.182C150.543 191.534 150.835 188.86 150.961 186.176C150.961 185.087 151.076 183.981 150.961 182.875C150.961 180.547 150.78 178.203 150.483 175.892C150.137 173.196 149.631 170.522 148.967 167.886C148.569 166.248 148.079 164.633 147.501 163.05C147.007 161.729 146.496 160.408 145.969 159.104C144.836 156.408 143.497 153.803 141.965 151.313C140.306 148.577 138.433 145.977 136.362 143.538C135.374 142.383 134.402 141.227 133.347 140.154C132.134 138.776 130.852 137.459 129.508 136.209C128.602 135.466 127.696 134.723 126.773 134.014C123.745 131.683 120.501 129.649 117.084 127.939C113.246 126.009 109.222 124.477 105.073 123.367C102.654 122.707 100.193 122.21 97.7074 121.881C95.8344 121.609 93.9475 121.443 92.0558 121.386H91.4462C90.9848 121.386 90.9024 121.27 90.886 120.824C90.886 120.626 90.886 120.412 90.886 120.214V102.056C90.886 100.884 90.7377 100.884 92.0723 100.933C94.5109 101.049 97.0154 101.165 99.3551 101.495C102.851 101.973 106.317 102.651 109.736 103.525C112.337 104.18 114.901 104.979 117.414 105.919C120.97 107.201 124.428 108.74 127.761 110.524C130.433 111.944 133.029 113.503 135.539 115.196C137.779 116.731 139.921 118.398 142.014 120.148C145.041 122.698 147.887 125.456 150.533 128.401C153.457 131.65 156.118 135.128 158.491 138.801C160.214 141.492 161.772 144.287 163.154 147.17C164.027 148.969 164.802 150.785 165.593 152.634C167.061 156.309 168.256 160.089 169.168 163.941C169.58 165.691 169.976 167.424 170.289 169.19C170.602 170.956 170.783 172.492 170.964 174.142C171.145 175.793 171.327 177.444 171.393 179.094C171.557 182.223 171.557 185.358 171.393 188.487C171.228 191.029 170.931 193.555 170.536 196.08C169.826 200.599 168.757 205.053 167.339 209.402C166.267 212.667 164.984 215.86 163.5 218.959C161.513 223.125 159.181 227.117 156.53 230.894C154.33 234.015 151.913 236.978 149.297 239.758C145.883 243.389 142.15 246.704 138.142 249.662C134.373 252.405 130.383 254.829 126.213 256.909C123.083 258.492 119.852 259.865 116.541 261.019C112.356 262.456 108.064 263.56 103.705 264.321C101.069 264.799 98.416 265.113 95.7467 265.377C94.2638 265.526 92.7973 265.542 91.3144 265.575C90.853 265.575 90.8036 265.575 90.7871 265.047C90.7706 264.519 90.7871 264.552 90.7871 264.321L90.8036 255.506Z" fill="#010088"/>
<path d="M7.01585 78.9768V8.30995C7.01585 6.75828 6.81813 6.95637 8.38344 6.95637H25.915C27.4473 6.95637 27.2661 6.74177 27.2661 8.34296V128.482L27.3814 128.746H27.645C27.9581 128.432 28.2712 128.118 28.5677 127.788C32.1697 123.773 36.1787 120.144 40.53 116.96C44.2782 114.18 48.2648 111.738 52.4429 109.663C56.8065 107.475 61.3556 105.68 66.0364 104.299C69.1376 103.398 72.2835 102.66 75.4613 102.087C77.3561 101.773 79.2674 101.525 81.1788 101.36C83.0901 101.195 84.8202 101.113 86.6326 101.014H87.1434C87.5224 101.014 87.6048 101.014 87.6213 101.509C87.6377 102.004 87.6213 101.922 87.6213 102.136C87.6213 108.161 87.6213 114.186 87.6213 120.294C87.6213 121.45 87.819 121.466 86.4679 121.516C79.6953 121.829 73.018 123.24 66.6955 125.692C63.925 126.749 61.2372 128.013 58.6547 129.472C55.0151 131.557 51.5928 134.001 48.439 136.768C45.9575 138.951 43.6493 141.324 41.5351 143.866C39.8188 145.959 38.2445 148.165 36.8227 150.469C35.1165 153.214 33.6289 156.09 32.3739 159.069C31.7313 160.571 32.0609 160.423 30.5779 159.878C23.1963 157.138 15.8255 154.387 8.46583 151.624C6.70279 150.964 7.04881 151.41 7.04881 149.528C7.01586 125.978 7.00487 102.461 7.01585 78.9768Z" fill="#010088"/>
<path d="M81.5424 47.6797H35.0443C33.5943 47.6797 33.792 47.8613 33.792 46.4087V28.2509C33.792 27.2935 33.6932 27.2935 34.7477 27.2935C34.9125 27.2935 35.0937 27.2935 35.2585 27.2935H128.996C129.26 27.2935 129.359 27.442 129.375 27.6896V47.201C129.375 47.6302 129.375 47.6632 128.881 47.6797H81.5424Z" fill="#C11010"/>
<path d="M87.6233 255.474V264.354C87.6233 264.585 87.6233 264.833 87.6233 265.081C87.6233 265.625 87.6233 265.642 87.0301 265.642C85.0693 265.642 83.125 265.477 81.1808 265.279C78.1655 264.965 75.1831 264.503 72.2173 263.925C70.7014 263.628 69.202 263.248 67.7191 262.852C62.0149 261.282 56.4921 259.113 51.2421 256.381C46.1785 253.749 41.4019 250.595 36.9895 246.972C33.6042 244.21 30.457 241.168 27.5811 237.877C24.9116 234.904 22.4871 231.718 20.3313 228.352C19.1614 226.504 17.975 224.638 17.0359 222.674C16.245 221.155 15.3882 219.653 14.7126 218.085C14.0371 216.517 13.5098 215.312 12.9166 213.909C12.7848 213.595 12.8342 213.496 13.1638 213.364L17.316 211.812L30.7282 206.86L31.4038 206.613C31.7663 206.497 31.8651 206.53 32.0299 206.91C32.7549 208.56 33.4634 210.211 34.2873 211.862C35.6307 214.482 37.1673 216.998 38.8843 219.389C40.1201 221.04 41.4053 222.69 42.7894 224.341C44.6952 226.517 46.7606 228.548 48.9683 230.416C50.4677 231.67 52 232.892 53.5983 234.031C58.5181 237.503 63.9196 240.234 69.6304 242.136C72.5069 243.087 75.4472 243.831 78.4291 244.364C80.1921 244.678 81.9717 244.892 83.7347 245.091C84.6245 245.19 85.5142 245.173 86.404 245.206H86.6676C87.5574 245.206 87.5738 245.206 87.5738 246.164L87.6233 255.474Z" fill="#010088"/>
<path d="M176.187 245.368V226.483C176.187 225.245 176.187 225.328 177.274 225.477C181.301 226.005 185.07 227.754 188.077 230.489C191.084 233.224 193.184 236.814 194.097 240.779C194.477 242.351 194.655 243.965 194.624 245.582C194.596 248.516 193.927 251.408 192.663 254.055C191.399 256.701 189.571 259.038 187.309 260.901C185.582 262.331 183.619 263.448 181.509 264.202C179.959 264.762 178.35 265.139 176.714 265.325C176.318 265.325 176.219 265.325 176.203 264.896C176.187 264.466 176.203 264.351 176.203 264.07L176.187 245.368Z" fill="#010088"/>
<path d="M172.989 245.42C172.989 251.676 172.989 257.932 172.989 264.205C172.989 265.625 172.989 265.377 171.82 265.212C169.264 264.871 166.801 264.03 164.57 262.736C162.58 261.57 160.794 260.087 159.281 258.345C158.345 257.287 157.553 256.11 156.924 254.845C156.094 253.282 155.468 251.617 155.062 249.893C154.495 247.379 154.411 244.78 154.815 242.234C155.272 239.44 156.298 236.771 157.831 234.393C158.709 233.034 159.762 231.797 160.961 230.712C163.555 228.275 166.761 226.591 170.238 225.842C170.996 225.677 171.787 225.562 172.561 225.446C172.825 225.446 172.956 225.446 172.973 225.76C172.989 226.074 172.973 226.387 172.973 226.701L172.989 245.42Z" fill="#010088"/>
<path d="M198.827 10.9689C198.827 12.0636 198.612 13.1476 198.194 14.159C197.776 15.1704 197.163 16.0893 196.39 16.8634C195.617 17.6375 194.7 18.2515 193.69 18.6704C192.681 19.0894 191.599 19.305 190.506 19.305C189.413 19.305 188.331 19.0894 187.322 18.6704C186.312 18.2515 185.395 17.6375 184.622 16.8634C183.85 16.0893 183.237 15.1704 182.819 14.159C182.401 13.1476 182.185 12.0636 182.185 10.9689C182.185 8.75803 183.062 6.63771 184.622 5.07439C186.183 3.51108 188.299 2.63281 190.506 2.63281C192.713 2.63281 194.829 3.51108 196.39 5.07439C197.95 6.63771 198.827 8.75803 198.827 10.9689Z" fill="#EFEFEF"/>
<path d="M195.07 16.4648H193.653C193.483 16.4855 193.31 16.45 193.161 16.3636C193.013 16.2772 192.896 16.1447 192.829 15.9861C192.401 15.2432 191.956 14.5004 191.511 13.7741C191.33 13.477 191.116 13.2129 190.918 12.9323C190.631 12.5004 190.215 12.1704 189.73 11.9895C189.245 11.8087 188.715 11.7862 188.216 11.9253C188.13 11.9336 188.05 11.9737 187.992 12.0378C187.934 12.102 187.902 12.1855 187.903 12.272C187.903 12.7177 187.903 13.1634 187.903 13.609C187.903 14.4014 187.903 15.2598 187.903 15.9861C187.903 16.2997 187.787 16.4153 187.474 16.4318C185.991 16.4318 186.09 16.5803 186.09 15.1607V6.2964C186.09 5.78468 186.189 5.70215 186.716 5.70215C188.067 5.70215 189.402 5.70215 190.737 5.70215C191.294 5.74219 191.846 5.83617 192.384 5.98277C192.928 6.1141 193.414 6.4183 193.771 6.8498C194.127 7.28129 194.335 7.81686 194.362 8.3763C194.416 8.91091 194.314 9.44981 194.068 9.92749C193.823 10.4052 193.444 10.801 192.978 11.067C192.632 11.2896 192.245 11.4411 191.841 11.5126C191.805 11.5144 191.771 11.5266 191.742 11.5476C191.714 11.5687 191.692 11.5978 191.679 11.6312C191.667 11.6647 191.665 11.701 191.673 11.7357C191.681 11.7704 191.699 11.8019 191.725 11.8263C192.744 12.77 193.586 13.888 194.213 15.1277L195.07 16.4648Z" fill="white"/>
<path d="M189.647 7.14014H190.669C191.049 7.14112 191.423 7.2376 191.756 7.42076C192.046 7.53921 192.288 7.75151 192.443 8.02379C192.599 8.29606 192.659 8.61261 192.613 8.9229C192.615 9.21719 192.519 9.50371 192.34 9.73698C192.161 9.97024 191.909 10.1369 191.625 10.2105C191.334 10.3226 191.029 10.3948 190.718 10.425C189.928 10.425 189.071 10.425 188.346 10.425C188.016 10.425 187.901 10.3095 187.901 9.99586C187.901 9.17051 187.901 8.34515 187.901 7.5198C187.901 7.27219 188.066 7.15664 188.296 7.14014H189.647Z" fill="#EFEFEF"/>
</svg>
